<?xml version="1.0" standalone="no"?>
<!DOCTYPE svg PUBLIC "-//W3C//DTD SVG 1.1//EN" "http://www.w3.org/Graphics/SVG/1.1/DTD/svg11.dtd" >
<svg xmlns="http://www.w3.org/2000/svg">
<metadata>Generated by IcoMoon</metadata>
<defs>
<font id="Libriciel-font" horiz-adv-x="1024">
<font-face units-per-em="1024" ascent="960" descent="-64" />
<missing-glyph horiz-adv-x="1024" />
<glyph unicode="&#x20;" horiz-adv-x="512" d="" />
<glyph unicode="&#xe900;" glyph-name="seance" horiz-adv-x="1409" d="M476.75 84.187h455.401c13.401 0 24.265-10.864 24.265-24.265v-99.655c0-13.401-10.864-24.265-24.265-24.265h-455.401c-13.401 0-24.265 10.864-24.265 24.265v99.655c0 13.401 10.864 24.265 24.265 24.265zM926.605 455.438c-3.931 4.129-9.469 6.697-15.607 6.697-5.653 0-10.797-2.178-14.639-5.74l0.014 0.013-45.109-61.049c-2.543-3.46-4.070-7.804-4.070-12.505 0-5.143 1.828-9.86 4.869-13.535l-0.029 0.036c25.231-30.672 40.609-70.28 40.847-113.473v-0.052c-0.209-16.589-2.706-32.514-7.189-47.583l0.315 1.232c-0.537-1.782-0.846-3.829-0.846-5.948 0-9.131 5.737-16.922 13.803-19.966l0.147-0.049 65.074-23.863c2.139-0.802 4.611-1.274 7.19-1.292h0.008c9.541 0.174 17.602 6.319 20.618 14.848l0.048 0.156c7.958 24.577 12.71 52.877 13.065 82.235l0.002 0.18c0 0.108 0 0.236 0 0.364 0 77.109-29.867 147.243-78.664 199.462l0.155-0.168zM824.759 526.497l-4.369 2.448c-32.372 13.439-69.97 21.244-109.392 21.244-42.888 0-83.618-9.238-120.309-25.832l1.839 0.744-14.135-11.364 7.181-14.375 44.404-60.73c3.644-6.654 10.598-11.091 18.588-11.091 2.244 0 4.406 0.35 6.435 0.998l-0.15-0.041c16.532 6.028 35.617 9.514 55.516 9.514 19.555 0 38.324-3.367 55.758-9.552l-1.166 0.361 12.337-2.506 51.929 71.038c2.55 3.388 4.084 7.668 4.084 12.305 0 1.118-0.089 2.215-0.261 3.285l0.016-0.118c-0.888 5.646-3.934 10.451-8.25 13.63l-0.057 0.040zM560.39 381.447l-44.529 60.825-6.572 6.858-6.27 0.969c-0.898 0.146-1.933 0.23-2.987 0.23-4.275 0-8.229-1.375-11.444-3.706l0.057 0.039-3.541-3.276c-42.704-50.272-68.76-115.847-69.017-187.502v-0.299c0.359-30.122 5.311-58.963 14.184-86.026l-0.575 2.026c2.534-7.964 9.864-13.633 18.519-13.633 0.123 0 0.246 0.001 0.368 0.003h-0.018c2.356 0.007 4.623 0.376 6.752 1.054l-0.159-0.044 68.408 25.118c7.571 2.816 12.867 9.98 12.867 18.382 0 1.967-0.29 3.866-0.83 5.657l0.036-0.139c-4.438 14.266-7.092 30.686-7.3 47.695l-0.001 0.11c0 0.034 0 0.074 0 0.114 0 38.466 12.081 74.111 32.655 103.346l-0.381-0.571c2.214 3.13 3.539 7.026 3.539 11.231 0 4.338-1.41 8.347-3.797 11.593l0.038-0.054zM939.833 687.644c-66.185 36.979-145.213 58.754-229.326 58.754-85.421 0-165.597-22.457-234.946-61.79l2.365 1.234c-4.75-2.6-8.287-6.914-9.812-12.091l-0.036-0.143c-0.517-1.718-0.815-3.693-0.815-5.738 0-3.817 1.038-7.391 2.847-10.456l-0.052 0.096 54.741-75.039c3.598-4.891 9.332-8.030 15.798-8.030 0.005 0 0.010 0 0.014 0h-0.001c3.347 0.011 6.498 0.834 9.273 2.281l-0.112-0.053c46.667 24.909 102.066 39.538 160.882 39.538 57.499 0 111.732-13.982 159.486-38.731l-1.933 0.911c2.579-1.342 5.631-2.13 8.868-2.13 6.499 0 12.256 3.175 15.805 8.058l0.039 0.056 53.598 73.241c2.483 3.346 3.975 7.558 3.975 12.118 0 1.12-0.090 2.219-0.263 3.29l0.016-0.117c-1.212 6.333-5.049 11.59-10.31 14.684l-0.101 0.055zM446.683 536.85l-41.195 56.324c-5.737 7.714-14.825 12.658-25.068 12.658-6.941 0-13.351-2.27-18.53-6.108l0.084 0.060-3.603-3.098c-85.863-87.724-138.846-207.928-138.846-340.508 0-50.457 7.674-99.121 21.919-144.889l-0.925 3.449c4.104-12.517 15.681-21.397 29.333-21.397 0.146 0 0.292 0.001 0.437 0.003h-0.022c3.78 0.003 7.418 0.609 10.823 1.726l-0.246-0.070 64.731 23.78c11.762 4.339 19.997 15.452 19.997 28.488 0 3.125-0.473 6.139-1.352 8.975l0.057-0.215c-8.874 29.777-13.981 63.991-13.981 99.398 0 93.617 35.701 178.896 94.232 242.963l-0.251-0.279c5.094 5.435 8.223 12.765 8.223 20.827 0 6.732-2.182 12.954-5.877 17.998l0.060-0.086zM1044.135 613.736c-4.308 3.755-9.979 6.045-16.185 6.045-7.94 0-15.005-3.748-19.522-9.571l-0.042-0.056-48.533-66.362c-2.861-3.918-4.578-8.83-4.578-14.144 0-6.772 2.789-12.893 7.282-17.277l0.005-0.005c66.985-65.046 108.551-155.952 108.551-256.567 0-37.522-5.781-73.695-16.501-107.674l0.689 2.532c-0.726-2.185-1.145-4.701-1.145-7.315 0-10.295 6.5-19.071 15.619-22.45l0.166-0.054 77.246-28.311c2.486-0.965 5.363-1.528 8.37-1.536h0.004c0.011 0 0.025 0 0.038 0 3.628 0 7.065 0.82 10.135 2.285l-0.142-0.061c6.097 2.888 10.724 8.042 12.85 14.347l0.050 0.172c14.556 44.135 22.951 94.935 22.951 147.697 0 141.589-60.459 269.057-156.969 357.996l-0.338 0.308zM1166.477 786.977c-3.755 3.148-8.639 5.060-13.97 5.060-6.293 0-11.964-2.665-15.945-6.928l-0.012-0.013h-0.041l-54.315-73.954c-2.5-3.411-4.001-7.692-4.001-12.322 0-6.261 2.743-11.881 7.093-15.725l0.022-0.019c118.162-104.659 192.271-256.758 192.271-426.166 0-65.012-10.914-127.476-31.010-185.658l1.2 3.994c-0.733-2.044-1.157-4.402-1.157-6.86 0-9.004 5.691-16.679 13.673-19.624l0.145-0.047 83.355-30.576c2.216-0.836 4.777-1.325 7.451-1.334h0.004c9.205 0.015 17.061 5.776 20.173 13.887l0.050 0.148 0.969 2.87c23.417 66.823 36.945 143.864 36.945 224.065 0 211.185-93.797 400.462-242.004 528.445l-0.894 0.755zM1062.779 860.988c-102.307 62.196-226.002 99.012-358.295 99.012-130.116 0-251.915-35.614-356.179-97.625l3.212 1.769c-6.806-4.282-11.263-11.753-11.263-20.265 0-5.109 1.605-9.843 4.339-13.725l-0.050 0.076 50.526-69.079c4.152-5.598 10.739-9.187 18.164-9.187 4.095 0 7.935 1.092 11.246 3l-0.109-0.058c80.694 45.584 177.189 72.443 279.957 72.443 104.85 0 203.171-27.958 287.913-76.826l-2.791 1.485c3.268-1.954 7.209-3.11 11.419-3.11 7.444 0 14.044 3.611 18.144 9.177l0.044 0.062 50.526 69.079c2.692 3.803 4.303 8.537 4.303 13.647 0 8.434-4.389 15.844-11.007 20.069l-0.096 0.057zM321.893 707.502l-51.929 70.98c-3.426 4.701-8.562 7.978-14.476 8.921l-0.126 0.017c-0.976 0.147-2.101 0.23-3.247 0.23-5.735 0-10.979-2.1-15.005-5.573l0.030 0.025c-145.748-129.312-237.139-317.096-237.139-526.226 0-0.031 0-0.063 0-0.094v-0.036c0.104-80.067 13.646-156.938 38.491-228.524l-1.483 4.911c1.952-5.645 5.954-10.153 11.095-12.722l0.128-0.058c2.827-1.444 6.165-2.293 9.7-2.303h0.003c2.824 0.012 5.528 0.515 8.034 1.428l-0.165-0.053 82.1 30.129c8.353 3.138 14.188 11.059 14.188 20.342 0 2.445-0.405 4.795-1.151 6.987l0.045-0.153c-18.691 53.952-29.485 116.131-29.485 180.832 0 167.255 72.131 317.663 186.983 421.814l0.477 0.426c4.359 3.96 7.085 9.651 7.085 15.979 0 4.784-1.558 9.204-4.195 12.781l0.042-0.059z" />
<glyph unicode="&#xe901;" glyph-name="modele" horiz-adv-x="888" d="M0.009 489.314h77.257v81.015h-77.257zM0.009 325.687h77.269v76.151h-77.269zM234.193 7.919q-70.302-0.077-140.612-0.205c-14.080-0.026-16.64 4.527-16.597 17.421q0.333 106.522 0.303 213.039h-77.278v-225.758c0-5.397-0.073-10.799 0.149-16.213-0.144-1.499-0.226-3.24-0.226-5.001 0-28.905 22.121-52.642 50.357-55.207l0.215-0.016h183.689zM566.327 8.009q-40.503 0-81.011 0.030v-72.038h81.011zM321.685-64h76.156v72.034q-38.080 0-76.156-0.038zM887.838 639.497c0.008 0.584 0.013 1.274 0.013 1.965 0 42.623-17.536 81.15-45.786 108.761l-0.029 0.028c-52.241 52.361-105.169 104.043-156.642 157.141-24.672 29.043-59.834 48.524-99.562 52.556l-0.636 0.052h-534.686c-28.462-2.572-50.594-26.316-50.594-55.229 0-1.76 0.082-3.501 0.242-5.219l-0.017 0.22c-0.222-5.393-0.149-10.79-0.149-16.188v-225.762h77.295q0 106.513-0.307 213.035c-0.043 12.996 2.692 17.412 16.67 17.357q204.143-0.819 408.277 0.021c13.474 0.055 15.556-4.356 15.471-16.32-0.516-70.746-0.269-141.491-0.247-212.241 0-45.227 20.907-65.839 66.62-65.847 70.746 0 141.495-0.256 212.237 0.252 11.396 0.081 15.573-1.681 15.539-14.622q-0.747-277.858-0.026-555.712c0.034-13.227-3.947-15.979-16.41-15.962q-70.635 0.107-141.269 0.166v-71.949h184.111c28.191 2.686 50.065 26.245 50.065 54.912 0 1.407-0.053 2.801-0.156 4.182l0.011-0.184c0.145 3.234 0.128 6.477 0.128 9.715q0 317.436-0.162 634.871zM803.302 668.181c-2.18-6.037-16.538-2.014-25.391-2.133-26.419-0.337-52.843-0.124-79.266-0.124-31.812 0-63.633 0.346-95.437-0.201-10.039-0.171-14.298 1.809-14.204 13.158 0.521 64.162 0.427 128.333 0.073 192.499-0.060 10.453 2.615 12.309 11.652 7.428 7.384-4.033 13.729-8.83 19.276-14.42l0.005-0.005q84.011-84.134 168.107-168.175l1.139-1.148c7.394-7.812 17.604-17.028 14.046-26.88z" />
<glyph unicode="&#xe902;" glyph-name="theme" horiz-adv-x="1109" d="M1108.147 684.211c-2.258 30.904-21.689 56.772-48.708 68.264l-0.525 0.199c-6.106 2.944-7.782 1.771-8.034-4.851-0.068-1.801-0.102-3.61 0-5.41 0.021-0.696 0.033-1.516 0.033-2.338 0-9.078-1.475-17.812-4.199-25.975l0.167 0.579q-20.122-66.56-40.38-133.073-25.741-84.361-51.371-168.751-23.394-76.873-46.699-153.771-19.913-65.771-39.953-131.503c-6.694-22.097-13.38-44.194-20.215-66.244-3.159-10.74-9.974-19.564-18.974-25.236l-0.183-0.108c-11.328-7.614-25.228-12.231-40.194-12.441l-0.054-0.001q-305.493 0.115-610.987 0.051c-1.274-0.025-2.777-0.039-4.283-0.039-7.999 0-15.906 0.397-23.701 1.172l0.985-0.079c-16.053 1.396-30.773 5.911-43.951 12.937l0.615-0.299c-15.649 8.435-26.743 23.592-29.461 41.499l-0.039 0.314c-0.435 1.59-0.685 3.416-0.685 5.3 0 10.776 8.183 19.641 18.674 20.72l0.089 0.007c3.25 0.598 6.991 0.94 10.811 0.94 0.743 0 1.483-0.013 2.219-0.039l-0.107 0.003q290.351 0 580.693 0.043c15.416 0.031 30.388 1.871 44.733 5.318l-1.312-0.266c21.842 4.385 39.874 17.908 50.24 36.323l0.192 0.37c6.839 11.912 13.485 25.971 19.047 40.565l0.703 2.102c10.112 26.88 17.89 54.485 26.244 81.92q20.813 68.326 41.387 136.721 19.746 65.259 39.428 130.534 20.727 68.352 41.412 136.717 23.629 77.935 47.1 155.917c3.59 10.562 5.663 22.728 5.663 35.379 0 2.728-0.096 5.433-0.286 8.113l0.020-0.36c-3.382 47.344-42.621 84.471-90.53 84.471-1.016 0-2.027-0.017-3.035-0.050l0.147 0.004q-247.322 0.141-494.647 0.141l-68.373-0.576c-1.838 0.249-3.963 0.392-6.122 0.392-9.069 0-17.552-2.514-24.788-6.882l0.215 0.121c-12.863-7.637-23.075-18.542-29.666-31.587l-0.201-0.439c-4.752-8.846-9.944-20.027-14.576-31.495l-0.882-2.472c-7.958-22.392-19.513-41.674-34.145-58.164l0.157 0.18c-3.325-3.71-6.464-7.769-9.301-12.046l-0.244-0.391c-3.678-4.973-5.887-11.226-5.887-17.995 0-2.964 0.423-5.828 1.213-8.537l-0.054 0.215c1.359-5.355 2.138-11.502 2.138-17.832 0-7.732-1.164-15.193-3.325-22.216l0.142 0.534c-7.738-28.489-17.13-53.051-28.623-76.392l1.098 2.468c-7.080-16.118-17.060-29.757-29.394-40.825l-0.11-0.097c-1.502-1.28-2.807-2.803-4.203-4.215-7.547-6.892-12.264-16.774-12.264-27.758 0-2.905 0.33-5.734 0.955-8.45l-0.049 0.253c0.942-4.822 1.48-10.367 1.48-16.038 0-8.407-1.184-16.538-3.394-24.234l0.152 0.618c-5.075-19.52-10.675-35.919-17.314-51.775l0.935 2.517c-9.542-27.536-22.814-51.377-39.496-72.389l0.383 0.5c-5.514-6.61-8.862-15.194-8.862-24.561 0-2.811 0.302-5.552 0.874-8.192l-0.046 0.254c0.45-2.886 0.708-6.215 0.708-9.605 0-5.732-0.736-11.293-2.118-16.592l0.101 0.456c-3.749-15.075-7.687-27.484-12.285-39.567l0.791 2.366c-13.544-39.365-31.883-73.499-54.793-104.006l0.691 0.961c-2.645-3.349-4.977-7.149-6.837-11.21l-0.143-0.348c-2.012-3.859-3.192-8.427-3.192-13.271 0-2.952 0.438-5.801 1.253-8.487l-0.054 0.207c1.544-4.687 2.434-10.082 2.434-15.685 0-2.368-0.159-4.698-0.467-6.982l0.029 0.266c-1.416-17.506-4.013-33.53-7.767-49.102l0.437 2.147c-2.267-8.514-3.57-18.288-3.57-28.366 0-4.763 0.291-9.458 0.856-14.068l-0.055 0.553c2.508-23.972 10.461-45.673 22.593-64.417l-0.346 0.571c22.322-36.797 55.264-65.217 94.546-81.364l1.318-0.479c15.513-6.622 33.562-10.472 52.509-10.472 0.263 0 0.525 0.001 0.787 0.002h-0.040q310.643 0.188 621.291 0.085c0.888-0.046 1.929-0.072 2.975-0.072 2.569 0 5.102 0.158 7.588 0.465l-0.298-0.030c47.716 7.336 87.322 36.645 108.69 77.080l0.387 0.803c6.36 13.069 11.869 28.362 15.735 44.297l0.325 1.587c14.238 46.383 28.237 92.838 42.355 139.255q19.678 64.713 39.253 129.446 21.359 70.4 42.748 140.834c11.755 38.656 23.795 77.227 35.123 116.002 8.164 21.415 15.259 46.94 20.053 73.268l0.414 2.739v5.427c-0.137 3.665 0.064 4.267 0 9.741zM502.212 676.783c3.358 10.586 6.635 21.175 9.69 31.761 0.772 2.684 1.916 2.803 4.006 2.786 11.465-0.077 22.989 0 34.445-0.085 2.133 0 2.987 0.512 3.661 2.748q14.020 45.705 28.203 91.409c0.188 0.606 0.26 1.207 0.593 2.799-5.943-5.949-12.396-11.385-19.289-16.238l-0.462-0.308c-5.948-4.309-5.973-4.326-8.862 0.209-4.646 7.339-9.212 14.741-13.892 22.059-0.828 1.28-1.233 2.057 0.956 3.631q31.573 22.69 63.010 45.551h40.107c-2.914-9.681-5.798-19.362-8.755-29.039q-18.155-59.456-36.433-118.912c-1.015-3.285-0.375-4.002 2.812-3.942 11.166 0.209 22.187 0 33.357 0.149 2.765 0.043 3.157-0.742 2.3-3.413-3.285-10.197-6.357-20.399-9.387-30.596-0.674-2.278-1.242-3.337-4.036-3.328q-59.989 0.162-120.064 0.030c-2.112 0-2.671 0.486-1.958 2.731zM417.152 435.546c5.027 33.887 25.146 62.232 53.18 78.377l0.525 0.279c15.223 9.967 31.39 17.664 46.673 27.482 5.103 3.227 9.491 6.434 13.653 9.902l-0.205-0.166c6.297 4.694 10.33 12.121 10.33 20.489 0 1.394-0.112 2.763-0.327 4.096l0.019-0.146c-1.946 6.737-10.829 10.082-20.535 8.021-11.528-3.104-21.306-9.406-28.623-17.889l-0.062-0.074c-2.679-2.79-3.78-2.82-5.781-0.99-6.711 6.135-13.653 12.066-20.663 17.882-1.762 1.459-1.523 2.56 0.346 4.762 14.98 18.3 35.884 31.257 59.752 35.951l0.651 0.107c4.878 1.321 10.479 2.080 16.257 2.080 14.020 0 26.996-4.469 37.581-12.060l-0.194 0.132c22.447-17.446 14.332-56.35-11.657-79.518-11.26-10.285-24.092-19.133-38.033-26.092l-0.969-0.438c-14.002-6.682-25.84-13.534-37.084-21.194l0.958 0.616c-5.981-3.77-10.893-8.696-14.536-14.5l-0.111-0.19c-1.344-2.342-1.075-2.893 1.28-2.88 14.353 0.073 28.693 0.094 42.987-0.021 2.266 0 2.739 0.917 3.264 2.714 1.66 5.679 3.52 11.362 5.141 17.041 0.572 2.001 1.135 2.94 3.524 2.91q17.173-0.201 34.47 0c2.176 0.021 2.257-0.772 1.673-2.662-5.623-18.206-11.247-36.412-16.64-54.613-0.905-3.042-2.398-2.534-4.143-2.534h-65.101c-21.559 0-43.093 0.068-64.708-0.085-2.679-0.038-3.157 0.917-2.893 3.213zM353.54 219.733c8.627 8.482 16.879 17.314 25.079 26.159 2.334 2.517 3.209 2.308 4.693 0.606 7.665-9.101 19.067-14.844 31.81-14.844 1.107 0 2.205 0.043 3.29 0.129l-0.144-0.009c7.076 0.281 13.612 2.358 19.236 5.783l-0.177-0.1c7.744 4.248 13.076 12.052 13.809 21.154l0.006 0.094c0.815 8.623-4.267 12.693-11.52 14.793-4.296 1.116-9.228 1.757-14.309 1.757-1.964 0-3.906-0.096-5.821-0.283l0.243 0.019c-2.236-0.137-2.944 0.602-3.196 2.526-0.704 5.397-1.613 10.722-2.603 16.009-0.329 1.758 0.337 2.906 1.958 4.433 16.87 16.993 34.772 32.893 53.63 47.625l1.253 0.942c0.147 0.146 0.262 0.324 0.334 0.523l0.003 0.010c-11.597 0-23.040-0.034-34.479 0.030-2.133 0-2.18-1.357-2.56-2.594-1.515-4.907-3.102-9.813-4.459-14.711-0.58-2.095-1.28-2.863-3.567-2.842q-17.173 0.183-34.462 0c-2.304-0.026-2.492 0.747-1.835 2.854 5.291 17.037 10.53 34.074 15.603 51.11 0.811 2.718 1.907 3.153 4.301 3.149q59.217-0.090 118.498 0.034c3.119 0 3.217-1.071 2.342-3.772q-4.203-12.966-7.936-25.941c-0.757-2.536-2.211-4.671-4.138-6.25l-0.022-0.018q-20.983-18.428-41.877-36.958c-4.156-3.665-4.143-3.58-0.196-4.975 14.522-3.966 25.021-17.041 25.021-32.568 0-2.741-0.327-5.405-0.944-7.956l0.047 0.23c-5.374-33.977-30.006-61.033-62.18-69.874l-0.604-0.142c-9.025-3.979-19.548-6.296-30.612-6.296-21.335 0-40.658 8.613-54.682 22.551l0.004-0.004c-2.223 2.394-2.389 4.117 1.161 7.616z" />
<glyph unicode="&#xe903;" glyph-name="fusion" horiz-adv-x="1196" d="M1184.61 468.988q-140.228 139.725-280.077 279.838c-5.92 7.071-14.751 11.536-24.625 11.536-4.253 0-8.313-0.828-12.027-2.333l0.215 0.077c-13.466-5.385-15.979-17.404-15.893-30.895 0.324-51.268-0.141-102.545 0.354-153.813 0.098-10.304-2.368-13.679-13.227-13.598-48.469 0.375-96.943 0.23-145.412 0.149-6.447 12.911-16.853 34.244-35.388 71.309-3.213 6.43-6.161 12.322-8.841 17.95-4.821 9.643-9.109 18.219-13.129 25.988-14.167 30.98-27.752 56.377-42.655 80.883l1.942-3.439c-23.579 38.1-50.983 70.878-82.387 99.321l-0.386 0.344c-55.079 48.441-123.196 83.366-198.404 98.893l-2.816 0.486c-28.567 5.385-61.431 8.466-95.014 8.466-4.462 0-8.911-0.054-13.347-0.162l0.657 0.013c-55.727-0.277-111.454-0.546-167.181 0-1.362 0.188-2.935 0.296-4.534 0.296-14.632 0-27.162-9.002-32.353-21.771l-0.084-0.234v-187.277c5.759-12.341 18.063-20.74 32.329-20.74 1.828 0 3.623 0.138 5.376 0.404l-0.197-0.025c69.12 0.269 138.24 0.269 207.36-0.802 57.089-1.287 107.621-28.279 140.642-69.817l0.29-0.378c7.383-9.278 14.881-19.761 21.85-30.616l0.921-1.533c27.733-49.092 53.636-117.564 82.159-179.776v-1.63c-28.25-61.402-53.867-129.062-81.34-177.609-7.889-12.387-15.389-22.87-23.383-32.943l0.608 0.794c-33.309-41.914-83.838-68.905-140.714-70.187l-0.21-0.004c-69.12-1.075-138.24-1.075-207.36-0.806-1.556 0.241-3.35 0.379-5.177 0.379-14.266 0-26.571-8.398-32.24-20.521l-0.092-0.218v-187.546c5.381-12.862 17.863-21.734 32.417-21.734 1.598 0 3.171 0.107 4.712 0.314l-0.18-0.020c55.727 0.538 111.458 0.269 167.181 0 3.769-0.092 8.207-0.144 12.658-0.144 33.582 0 66.47 2.977 98.412 8.681l-3.367-0.498c78.035 16.132 146.139 51.146 201.687 100.079l-0.48-0.414c31.791 28.785 59.196 61.563 81.656 97.733l1.118 1.932c12.839 20.694 26.33 45.637 38.45 71.353l2.006 4.734c3.482 7.253 7.501 15.006 11.789 23.846 3.213 6.43 6.699 13.653 10.449 21.167 14.199 28.399 23.578 47.689 30.293 60.817l2.637 5.41c62.549 0.154 121.263 0.495 147.823 0.666 10.082 0.068 12.608-2.522 12.506-12.531-0.529-52.156-0.337-104.324-0.183-156.484-0.118-0.97-0.185-2.092-0.185-3.231 0-13.894 10.009-25.45 23.21-27.851l0.173-0.026c1.28-0.183 2.759-0.288 4.262-0.288 10.197 0 19.27 4.815 25.069 12.294l0.054 0.072q136.077 136.316 272.375 272.384c6.953 6.506 12.968 13.886 17.904 21.996l0.26 0.459v13.38c-3.286 6.652-6.919 12.375-11.079 17.663l0.161-0.212z" />
<glyph unicode="&#xe904;" glyph-name="cachet-o" d="M691.2-8.533l-128 221.867 21.333 12.8 110.933-192 64 81.067 102.4 12.8-110.933 192 17.067 12.8 128-221.867-123.733-17.067zM512 106.667l-110.933 81.067h-140.8l-42.667 132.267-110.933 81.067 42.667 132.267-42.667 132.267 110.933 81.067 42.667 132.267h140.8l110.933 81.067 110.933-81.067h140.8l42.667-132.267 110.933-81.067-42.667-132.267 42.667-132.267-110.933-81.067-42.667-132.267h-140.8l-110.933-81.067zM426.667 273.067l85.333-59.733 85.333 59.733h102.4l34.133 98.133 85.333 59.733-34.133 102.4 34.133 98.133-85.333 59.733-34.133 98.133h-102.4l-85.333 59.733-85.333-59.733h-102.4l-34.133-93.867-85.333-59.733 34.133-102.4-34.133-98.133 85.333-59.733 34.133-98.133 102.4-4.267zM512 362.667c-93.867 0-170.667 76.8-170.667 170.667s76.8 170.667 170.667 170.667c93.867 0 170.667-76.8 170.667-170.667s-76.8-170.667-170.667-170.667zM512 618.667c-46.933 0-85.333-38.4-85.333-85.333s38.4-85.333 85.333-85.333c46.933 0 85.333 38.4 85.333 85.333s-38.4 85.333-85.333 85.333z" />
<glyph unicode="&#xe905;" glyph-name="web-GFC" horiz-adv-x="1106" d="M990.527 525.131c0-20.325-0.805-41.456-2.097-62.749-0.967-30.81-3.066-60.813-6.291-89.848 20.325 15.485 40.489 32.099 60.491 49.521-11.642 39.457-29.475 73.794-52.641 103.802l0.539-0.726zM776.319 384.955c9.852 49.912 17.001 109.107 19.894 169.418l0.109 2.859c-35.24 23.327-77.706 38.586-123.449 42.203l-0.921 0.059c-1.769-100.699-16.081-197.293-41.437-289.31l1.915 8.15c-28.012-10.429-61.416-19.444-95.85-25.462l-3.519-0.509c-71.459-11.937-145.822-4.355-194.537 32.261q-1.694 1.451-2.904 2.418c-0.807 0.805-1.935 1.775-2.904 2.742-0.805 0.967-3.709 4.679-5.646 6.937 0.967-0.807-6.775 11.452-7.421 12.743-3.481 6.607-7.226 14.898-10.531 23.409l-0.6 1.755c-14.562 40.55-24.060 87.415-26.41 136.154l-0.043 1.118c-22.098-10.485-44.52-21.938-66.942-34.359 18.641-69.383 51.134-129.592 94.55-180.146l-0.507 0.605c20.265-23.856 43.35-44.429 68.964-61.508l1.204-0.755c-51.491 18.009-95.981 39.968-137.224 66.533l2.532-1.527c-47.173 28.748-84.738 69.056-109.406 117.077l-0.767 1.644c-35.649-56.296 0.805-146.951 44.52-201.15 0-0.162 0.162-0.324 0.324-0.484 1.775-1.775 3.548-3.388 5.322-5 58.718-53.716 141.629-94.365 241.156-121.463 120.203 0.989 235.816 19.013 345.060 51.769l-8.732-2.249c12.889 3.4 23.47 6.929 33.766 11.022l-1.988-0.697c0.805 2.418 4.517 14.034 9.195 28.23-31.939-1.129-62.911-1.129-93.235-0.324 7.421 14.679 14.196 29.841 20.647 45.811 39.396 15.467 72.103 31.124 103.543 48.772l-4.174-2.153c5.968 25.81 13.227 58.554 13.227 58.554s3.711 41.94 4.195 50.49c0.532 8.305 0.834 18.008 0.834 27.782 0 7.646-0.185 15.249-0.552 22.804l0.041-1.065q-35.822-24.671-71.301-45.156zM797.452 693.053c-8.55 5.324-17.26 10.485-26.293 15.647l-4.195 1.775c-0.162 0.322-0.484 0.646-0.646 0.967q-45.732 25.89-97.269 48.715c-0.542-1.669-0.855-3.59-0.855-5.584 0-0.476 0.018-0.948 0.053-1.415l-0.004 0.062c1.289-17.743 2.258-35.165 2.742-52.425 49.877-13.651 92.806-38.608 127.526-72.032l-0.093 0.089c0.151 21.129-0.171 42.584-0.977 64.198zM1064.075 604.009c-27.95 46.692-61.597 86.555-100.676 120.297l-0.624 0.526c-7.443 23.117-15.531 42.597-24.974 61.274l1.099-2.398c-40.556 82.148-115.011 142.311-204.592 162.692l-2.027 0.388c-32.601 8.401-70.026 13.223-108.577 13.223-26.546 0-52.558-2.286-77.85-6.673l2.698 0.387c-141.951 7.419-266.158-13.227-355.522-63.717-79.817-44.153-136.823-121.217-152.982-212.393l-0.268-1.824c-5.359-26.165-8.427-56.239-8.427-87.028 0-24.913 2.008-49.357 5.872-73.179l-0.349 2.61c-23.195-54.129-36.681-117.121-36.681-183.262 0-35.306 3.843-69.714 11.132-102.829l-0.583 3.157c18.609-92.35 77.222-168.136 156.58-209.712l1.663-0.793c74.039-39.522 171.148-58.392 281.643-58.071 48.564-19.437 104.857-30.711 163.783-30.711 9.854 0 19.635 0.315 29.333 0.936l-1.323-0.068c95.44 3.747 179.094 51.104 232.034 122.581l0.58 0.819c11.615 15.316 22.786 32.618 32.635 50.743l1.077 2.165c80.211 55.978 141.617 133.922 176.023 225.112l1.093 3.301c12.756 32.235 20.152 69.578 20.152 108.648 0 56.717-15.586 109.794-42.708 155.182l0.766-1.383zM441.437 809.193c9.037 6.433 19.626 13.158 30.556 19.352l1.866 0.973c76.763-21.194 141.62-44.846 204.053-72.929l-8.866 3.566q51.538-22.744 97.269-48.715c0.162-0.324 0.484-0.646 0.646-0.967l4.195-1.775c9.034-5.162 17.743-10.325 26.293-15.647 19.84-12.097 38.552-24.68 56.46-37.585 4.193-38.231 6.937-75.656 8.066-111.79-2.258 4.355-4.679 8.712-7.097 13.067-16.153 27.5-34.865 51.193-56.37 72.018l-0.089 0.086c-34.627 33.335-77.556 58.292-125.372 71.459l-2.061 0.484c-10.325 2.904-20.809 5.324-31.617 7.259-101.3 18.067-225.507-3.709-356.973-58.071 44.818 61.723 97.381 114.34 157.032 157.817l2.011 1.397zM74.301 651.106c0.484 2.742 1.451 7.419 1.613 8.872 0.324 1.129 0.805 2.418 1.129 3.709 0.324 0.805 0.805 1.935 1.453 3.549 24.197 55.812 85.331 99.041 153.243 123.722 3.871 1.291 7.904 2.58 11.776 3.871-61.315-64.356-114.147-137.621-156.179-217.456l-2.547-5.309c-2.902 9.871-5.656 22.291-7.667 34.959l-0.238 1.818c-1.336 7.899-2.318 17.345-2.726 26.94l-0.016 0.482c-0.002 1.459 0.642 15.976 0.16 14.847zM638.878-23.806c-1.453-0.324-2.742-0.646-3.549-0.805-1.070-0.262-2.388-0.489-3.73-0.633l-0.141-0.012c-1.451 0-6.13-0.324-9.034-0.484 0 0.484-13.388 1.613-14.679 1.775-2.742 0.484-5.484 1.129-8.226 1.775 23.713 3.226 47.908 7.419 72.268 12.097-9.411-5.323-20.322-9.984-31.767-13.411l-1.143-0.294zM823.252 243.812c-3.226-11.776-12.743-41.618-20.164-64.364-4.677-14.196-8.388-25.81-9.195-28.23-8.307-3.396-18.889-6.925-29.718-9.851l-2.060-0.474c-100.51-30.507-216.122-48.532-335.797-49.517l-0.531-0.003c-1.702-0.015-3.713-0.023-5.727-0.023-76.729 0-150.603 12.227-219.778 34.838l4.998-1.414c-68.395 23.068-130.499 64.846-156.147 120.012-0.646 1.613-1.129 2.742-1.453 3.548-0.466 1.026-0.907 2.261-1.251 3.535l-0.040 0.176c-0.322 1.289-1.289 5.968-1.775 8.872 0.484-1.129-0.646 13.388-0.484 14.679 0.026 9.753 0.729 19.317 2.063 28.678l-0.128-1.094c2.768 20.075 6.659 37.802 11.788 54.995l-0.658-2.57s55.652-67.911 102.756-117.754c0.349-0.48 0.719-0.902 1.125-1.287l0.004-0.004c5.646-5.968 11.13-11.614 16.292-16.776 0.494-0.517 1.021-0.993 1.58-1.429l0.032-0.024c-43.715 54.201-80.173 144.855-44.52 201.15 7.555 11.753 17.462 21.351 29.118 28.329l0.4 0.222c17.098 10.325 34.198 20.325 51.134 29.519 22.422 12.421 44.844 23.873 66.942 34.359 126.949 60.653 247.929 90.977 353.424 89.848 12.98-0.115 25.634-0.932 38.083-2.416l-1.627 0.158c46.663-3.675 89.129-18.935 125.356-42.875l-0.987 0.613c9.375-6.475 17.561-13.535 24.928-21.375l0.075-0.080c0.967-1.291 1.775-2.097 2.418-2.904 0.739-0.895 1.482-1.895 2.174-2.931l0.085-0.135c0.646-1.291 3.066-5.484 4.517-7.904-0.805 0.805 4.677-12.583 5-13.872 2.377-7.182 4.668-16.185 6.396-25.387l0.217-1.39c2.835-14.943 4.801-32.545 5.465-50.479l0.019-0.654c0.325-6.49 0.511-14.093 0.511-21.739 0-9.774-0.303-19.477-0.9-29.1l0.065 1.318c-0.484-8.55-4.195-50.49-4.195-50.49s-7.259-32.747-13.227-58.554c-2.898-12.269-5.318-22.915-6.61-27.754zM1048.266 353.983c-0.324-1.613-0.484-2.904-0.646-3.709l-0.967-3.871c-0.484-1.291-2.097-5.806-3.226-8.388-0.324 0-6.613-11.614-7.421-12.743-5.372-8.426-10.737-15.689-16.545-22.567l0.252 0.306c-18.227-21.303-38.040-40.246-59.587-57.070l-0.903-0.679c9.717 35.888 17.78 79.141 22.564 123.377l0.342 3.894c3.226 29.035 5.324 59.038 6.291 89.848 1.291 21.293 2.097 42.424 2.097 62.749 22.628-29.283 40.46-63.619 51.538-100.864l0.565-2.212c4.289-14.477 6.757-31.111 6.757-48.321 0-6.959-0.403-13.823-1.188-20.571l0.078 0.821z" />
<glyph unicode="&#xe906;" glyph-name="asalae" d="M627.013 423.636c4.971 7.456 9.113 14.084 13.256 20.712s7.456 13.256 10.77 19.883c3.314 6.628 5.799 13.256 8.285 19.055 2.485 6.628 4.971 12.427 6.628 18.226 1.657 6.628 3.314 13.256 4.142 19.055s0.828 11.599 0.828 16.569c0 4.971-0.828 9.942-2.485 14.084s-3.314 8.285-5.799 11.599c-2.485 3.314-4.971 6.628-8.285 9.113s-6.628 4.971-9.942 6.628c-3.314 1.657-7.456 3.314-11.599 4.142s-9.113 1.657-13.256 1.657c-4.971 0-10.77 0-15.741-0.828s-10.77-1.657-15.741-3.314c-4.971-1.657-10.77-3.314-15.741-5.799s-10.77-5.799-15.741-9.113c-5.799-3.314-10.77-7.456-15.741-11.599s-9.942-9.113-14.913-14.084c-4.971-4.971-9.942-10.77-14.913-16.569s-9.113-12.427-14.084-19.055c-4.142-6.628-9.113-13.256-12.427-19.883-4.142-6.628-7.456-12.427-10.77-19.055-3.314-5.799-6.628-12.427-9.113-18.226s-4.971-11.599-6.628-17.398c-2.485-7.456-4.971-14.084-6.628-20.712s-2.485-13.256-3.314-19.055c-0.828-5.799-0.828-11.599 0-16.569s1.657-9.942 3.314-14.084c1.657-4.142 4.142-8.285 6.628-11.599s4.971-6.628 8.285-9.113c3.314-2.485 6.628-4.142 10.77-5.799s8.285-2.485 13.256-3.314c3.314-0.828 7.456-0.828 10.77-0.828s7.456 0 10.77 0.828c3.314 0 7.456 0.828 10.77 1.657 4.142 0.828 7.456 1.657 11.599 3.314 2.485 0.828 5.799 2.485 9.113 3.314 3.314 1.657 5.799 3.314 9.113 4.971s6.628 3.314 9.113 5.799c3.314 2.485 6.628 4.142 9.942 6.628 4.971 3.314 9.113 7.456 14.084 12.427 4.971 4.142 9.113 9.113 14.084 14.912s9.942 11.599 14.084 17.398c3.314 9.942 8.285 16.569 13.256 24.026v0c0 0 0 0 0 0zM800.995 757.509c-6.628 0.828-13.256 1.657-19.884 2.485-8.285 0.828-16.57 1.657-24.855 1.657s-16.57 0.828-25.683 0.828c-8.285 0-17.398 0-25.683-0.828-17.398-0.828-33.968-2.485-50.538-4.971s-31.482-4.971-47.224-8.285c-14.913-3.314-29.825-7.456-44.738-12.427-14.084-4.971-28.169-9.942-42.253-15.741s-27.34-12.427-39.767-19.055c-13.256-6.628-25.683-14.912-37.282-23.197-12.427-8.285-24.026-17.398-35.625-27.339s-23.198-19.883-33.968-31.482c-10.77-10.77-21.541-22.369-31.482-33.967s-19.055-24.026-28.169-36.453c-9.113-12.427-16.57-25.683-24.855-38.938-7.456-13.256-14.913-27.339-21.541-42.252-5.799-13.256-11.599-26.511-15.741-39.767-4.971-13.256-8.285-26.511-11.599-40.595-3.314-13.256-5.799-27.339-6.628-40.595-1.657-14.084-2.485-28.168-2.485-41.423 0-14.084 1.657-28.168 4.142-41.423s5.799-26.511 10.77-39.767c4.971-13.256 11.599-25.683 19.055-37.281 7.456-12.427 16.57-24.026 27.34-35.624 9.113-9.113 18.227-18.226 28.997-27.339s22.369-17.398 34.796-24.854c12.427-8.285 26.512-15.741 40.596-23.197s29.825-14.084 46.395-19.883c-13.256-8.285-26.512-15.741-40.596-20.712-14.084-5.799-28.169-9.113-42.253-11.599s-27.34-2.485-40.596-1.657c-13.256 0.828-25.683 3.314-37.282 7.456s-22.369 9.113-32.311 15.741c-9.942 6.628-19.055 14.084-27.34 23.197-8.285 8.285-14.913 18.226-20.712 28.996s-10.77 22.369-14.084 34.796l-84.506 310.676c-2.485 7.456-3.314 15.741-3.314 24.854 0 8.285 0.828 17.398 2.485 25.683s4.142 17.398 7.456 26.511c3.314 9.113 6.628 17.398 11.599 25.683 4.142 8.285 9.942 16.569 15.741 24.854s12.427 16.569 19.055 24.026c6.628 7.456 14.084 14.912 22.369 22.369 8.285 6.628 16.57 13.256 24.855 19.883l280.857 193.033c9.113 6.628 18.227 11.599 28.169 16.569 9.113 4.971 19.055 9.113 28.997 13.256 9.942 3.314 19.884 6.628 28.997 9.113 9.942 2.485 19.884 4.142 28.997 4.971 9.942 0.828 19.055 1.657 28.169 0.828s18.227-1.657 26.512-3.314c8.285-1.657 16.57-4.971 24.026-8.285s14.084-8.285 20.712-13.256zM546.65 125.387c-2.485 0.828-4.971 0.828-6.628 1.657-2.485 0.828-5.799 0.828-8.285 1.657s-5.799 1.657-8.285 1.657c-2.485 0.828-5.799 1.657-8.285 1.657-17.398 4.142-33.139 9.113-48.881 14.084-14.913 4.971-28.997 10.77-42.253 17.398s-24.855 13.256-36.453 19.883c-10.77 7.456-21.541 14.912-30.654 23.197s-17.398 16.569-24.855 25.683c-6.628 9.113-13.256 18.226-18.227 28.168s-9.113 19.883-11.599 30.653c-3.314 10.77-4.971 21.54-6.628 33.139-0.828 11.599-1.657 22.369-0.828 33.967 0 11.599 1.657 22.369 3.314 33.967 1.657 10.77 4.971 22.369 8.285 33.967 3.314 10.77 7.456 22.369 12.427 33.967s9.942 23.197 16.57 33.967c5.799 10.77 12.427 21.54 19.055 32.31s14.084 20.712 21.541 30.653c7.456 9.942 15.741 19.883 24.855 28.996 9.113 9.942 17.398 18.226 27.34 27.339 9.113 8.285 19.055 16.569 28.997 24.026s20.712 14.084 31.482 20.712c10.77 6.628 22.369 12.427 33.968 17.398s24.026 9.942 36.453 14.084c12.427 4.142 25.683 7.456 39.767 10.77s28.169 4.971 42.253 6.628c14.913 1.657 30.654 2.485 46.395 3.314 19.055 0.828 37.282 0 54.68-1.657s33.968-4.142 48.881-8.285c15.741-4.142 29.825-9.113 42.253-15.741 13.256-6.628 24.855-14.084 35.625-23.197s19.884-19.055 28.169-29.825c7.456-10.77 14.084-22.369 18.227-34.796s7.456-25.683 8.285-39.767c0.828-14.084 0-29.825-3.314-45.566-1.657-9.113-4.142-18.226-6.628-26.511-3.314-9.113-6.628-18.226-10.77-26.511-4.142-9.113-9.113-17.398-14.913-26.511s-11.599-17.398-19.055-25.683c-6.628-8.285-14.084-16.569-21.541-24.026s-15.741-14.912-23.198-21.54c-8.285-6.628-16.57-12.427-25.683-18.226s-17.398-10.77-27.34-14.912c-6.628-3.314-13.256-6.628-19.884-9.113-5.799-2.485-11.599-4.142-17.398-5.799-4.971-1.657-9.942-2.485-14.913-2.485-4.142-0.828-8.285 0-12.427 0-0.828 0-2.485 0.828-3.314 0.828s-1.657 0.828-3.314 1.657c-0.828 0.828-1.657 1.657-2.485 1.657-0.828 0.828-1.657 1.657-1.657 2.485-0.828 0.828-0.828 2.485-1.657 3.314 0 0.828-0.828 2.485-0.828 4.142s0 2.485 0 4.142c0 1.657 0.828 3.314 0.828 4.971s0.828 3.314 1.657 5.799c0.828 2.485 1.657 4.971 3.314 7.456 1.657 3.314 2.485 6.628 4.971 9.942 1.657 4.142 4.142 8.285 5.799 12.427l130.072 263.453-107.703 0.828-19.884-36.453c-3.314 7.456-7.456 14.084-13.256 19.883-4.971 5.799-11.599 9.942-19.055 14.084-7.456 3.314-14.913 6.628-24.026 8.285s-18.227 2.485-28.997 2.485c-14.913 0-28.997-1.657-43.081-4.142s-27.34-7.456-41.424-13.256c-13.256-5.799-26.512-13.256-39.767-21.54-13.256-9.113-26.512-19.055-39.767-30.653-10.77-9.942-20.712-19.883-29.825-29.825s-18.227-20.712-25.683-32.31c-8.285-10.77-14.913-22.369-21.541-34.796s-12.427-24.854-18.227-38.11c-4.142-10.77-7.456-20.712-9.942-30.653s-4.142-19.883-4.971-28.996c-0.828-9.113 0-18.226 0.828-27.339 1.657-9.113 3.314-17.398 6.628-25.683s7.456-15.741 12.427-22.369c4.971-6.628 10.77-12.427 17.398-18.226 6.628-4.971 14.084-9.942 22.369-13.256s18.227-6.628 28.169-8.285c9.942-1.657 19.055-2.485 28.997-2.485s19.884 1.657 29.825 4.142c9.942 2.485 20.712 5.799 30.654 9.942s20.712 9.942 30.654 16.569c0-4.142 0-8.285 0-11.599s0.828-7.456 2.485-10.77c0.828-3.314 2.485-6.628 4.142-9.942s3.314-5.799 5.799-8.285c2.485-2.485 4.971-4.971 8.285-7.456s6.628-4.142 10.77-6.628c4.142-1.657 9.113-3.314 14.084-4.971s10.77-2.485 16.57-4.142c5.799-0.828 12.427-2.485 18.227-2.485 5.799-0.828 12.427-1.657 18.227-1.657s12.427-0.828 18.227-0.828c5.799 0 10.77 0 16.57 0.828z" />
<glyph unicode="&#xe907;" glyph-name="cachet" d="M574.038 220.517c43.619-75.549 77.299-133.885 120.151-208.105l70.514 91.192 114.227 15.474c-40.322 69.843-84.48 146.33-120.144 208.106zM512.083 907.167l-98.25-71.583-121.5 0.167-37.333-115.667-98.5-71.25 37.75-115.5-37.75-115.5 98.5-71.25 37.333-115.667 121.5 0.166 98.25-71.583 98.167 71.583 121.583-0.166 37.333 115.667 98.417 71.25-37.75 115.5 37.75 115.5-98.417 71.25-37.333 115.667-121.583-0.167zM512 661.333c70.692 0 128-57.308 128-128v0c0-70.692-57.308-128-128-128v0c-70.692 0-128 57.308-128 128v0c0 70.692 57.308 128 128 128v0z" />
<glyph unicode="&#xe908;" horiz-adv-x="1280" d="M866.153 359.863h363.497l-295.938-338.53h-883.408l457.492 337.795z" />
<glyph unicode="&#xe909;" horiz-adv-x="1280" d="M977.772 727.032l-28.639 16.155c-24.233 13.952-33.045 45.529-19.093 70.496l20.561 35.248c13.952 24.233 45.529 33.045 70.496 19.093l28.639-16.155c24.233-13.952 33.045-45.529 19.093-70.496l-20.561-35.248c-14.687-24.967-46.263-33.045-70.496-19.093z" />
<glyph unicode="&#xe90a;" horiz-adv-x="1280" d="M711.208 152.045l-77.105 40.389c-16.155 8.078-22.030 28.639-13.952 44.795l231.316 440.602c8.078 16.155 28.639 22.030 44.795 13.952l77.105-40.389c16.155-8.078 22.030-28.639 13.952-44.795l-231.316-440.602c-8.078-16.155-28.639-22.030-44.795-13.952z" />
<glyph unicode="&#xe90b;" horiz-adv-x="1067" d="M501.853 521.637c-21.048 0-40.183 0-59.318 0-9.567 0-19.135 0-28.702 0-7.654 0-11.481 3.827-11.481 10.524 0 26.788 0 53.576 0 80.364 0 5.74 3.827 9.567 9.567 10.524 3.827 0 6.697 0 10.524 0 66.015 0 131.073 0 197.088 0 3.827 0 6.697 0 10.524 0 6.697 0 9.567-3.827 10.524-10.524 0-2.87 0-6.697 0-9.567 0-167.426 0-333.895 0-501.321 0-18.178-1.914-20.091-20.091-20.091-33.486 0-66.971 0-100.457 0-17.221 0-19.135 1.914-19.135 19.134 0 135.854 0 271.709 0 407.563 0.957 3.827 0.957 7.654 0.957 13.394z" />
<glyph unicode="&#xe90c;" horiz-adv-x="1067" d="M273.193 672.799c-107.154-208.565-107.154-417.13 0-625.695-1.913-0.957-3.827-1.914-5.74-1.914-25.832-7.654-51.664-14.351-77.496-22.961-5.74-1.913-8.611-0.957-12.438 4.784-43.053 73.667-74.625 151.162-88.976 236.31-5.74 32.528-9.567 66.97-9.567 100.456 0 69.841 14.351 136.811 38.269 202.825 16.264 43.052 35.399 85.148 58.361 125.33 3.827 6.697 7.654 8.61 15.308 6.697 24.875-7.654 49.75-14.351 75.582-22.005 1.913-1.913 3.827-2.87 6.697-3.827z" />
<glyph unicode="&#xe90d;" horiz-adv-x="1067" d="M853.932 507.286c4.784-0.957 7.654-1.914 9.567-1.914 35.399-9.567 69.842-20.091 105.241-29.658 5.74-1.914 7.654-3.827 8.611-9.567 14.351-70.797 13.394-141.595-0.957-212.392-0.957-2.87-3.827-6.697-6.697-7.654-37.313-11.481-74.625-22.005-111.938-32.529-0.957 0-1.914 0-4.784 0 22.962 96.629 22.962 194.214 0.957 293.713z" />
<glyph unicode="&#xe90e;" horiz-adv-x="1067" d="M660.671 784.735c0-49.749-40.183-90.888-89.933-90.888s-90.89 40.182-90.89 90.888c0 49.749 40.183 89.932 90.89 89.932 49.75 0 89.933-39.226 89.933-89.932z" />
<glyph unicode="&#xe90f;" glyph-name="Pastell" d="M205.423 256.653c0 74.831 0 149.662 0 224.334 0 10.986 0 10.986 11.304 10.986 104.924 0 209.848-0.32 314.931 0.162 34.391 0.162 65.598 10.19 90.276 35.983 18.31 19.265 27.067 42.67 29.137 68.622 2.388 30.251-3.503 58.591-21.972 83.429-18.469 24.678-43.944 37.734-73.717 42.988-9.075 1.592-18.151 1.751-27.386 1.751-103.491 0-206.982-0.164-310.473-0.164-11.782 0-11.782 0-11.782 12.1 0 42.67 0.164 85.339-0.164 128.168 0 7.324 2.388 9.394 9.553 9.394 111.293-0.164 222.426 0.955 333.719-0.477 66.075-0.796 127.055-20.22 178.482-63.367 44.581-37.416 72.762-85.18 84.544-142.179 15.603-75.468 4.458-146.477-38.531-211.119-39.008-58.591-95.371-92.026-163.198-107.311-24.519-5.572-49.517-7.642-74.673-7.483-50.949 0.162-101.74 0-152.689 0-10.031 0-10.031 0-10.031-9.871 0-99.827 0-199.814 0-299.642 0-11.62 0-11.62-11.463-11.62-48.084 0-96.008 0-144.092 0-11.304 0-11.304 0-11.304 10.986-0.477 74.831-0.477 149.662-0.477 224.334z" />
<glyph unicode="&#xe910;" glyph-name="S2low" horiz-adv-x="1195" d="M138.061 456.872h299.914c0 0 50.588 42.638 114.907 43.361s338.217 0 338.217 0l15.176 37.58h-67.21l7.95 20.958h-461.073c0.723-0.723-171.276 0.723-247.881-101.899zM172.027 372.318l453.846-3.613c0 0 46.975 3.613 18.067-41.916 0 0-29.63-31.075-92.504-30.353h-487.090l-21.681-61.428h557.19c0 0 185.007 8.672 234.873 112.016 0 0 18.067 54.201-18.79 65.042-36.134 10.84-703.173 0-703.173 0s3.613-39.748 59.26-39.748zM883.15 660.67l-8.672-23.126h181.394c0 0 31.798 0.723 28.185-16.622h67.932c0 0 2.168 39.748-53.479 39.748-56.369 0.723-216.806 0-215.36 0zM1105.737 587.678h-130.806c0 0-15.899-10.118-16.622-26.739h164.772l-5.781-19.513c0 0-1.445-4.336-5.781-5.059-4.336 0-276.066 0-276.066 0l20.958 52.033c0 0 10.84 15.176 22.403 15.176 12.286 0 257.276 0 257.276 0s-13.008-16.622-30.353-15.899z" />
<glyph unicode="&#xe911;" glyph-name="signature" d="M574.038 220.517c43.619-75.549 77.299-133.885 120.151-208.105l70.514 91.192 114.227 15.474c-40.322 69.843-84.48 146.33-120.144 208.106zM449.971 220.517c-43.619-75.549-77.299-133.885-120.151-208.105l-70.514 91.192-114.227 15.474c40.322 69.843 84.48 146.33 120.144 208.106zM512.083 907.167l-98.25-71.583-121.5 0.167-37.333-115.667-98.5-71.25 37.75-115.5-37.75-115.5 98.5-71.25 37.333-115.667 121.5 0.166 98.25-71.583 98.167 71.583 121.583-0.166 37.333 115.667 98.417 71.25-37.75 115.5 37.75 115.5-98.417 71.25-37.333 115.667-121.583-0.167zM512 661.333c70.692 0 128-57.308 128-128v0c0-70.692-57.308-128-128-128v0c-70.692 0-128 57.308-128 128v0c0 70.692 57.308 128 128 128v0z" />
<glyph unicode="&#xe912;" glyph-name="signature-o" d="M795.601 348.654l-73.702-42.835 88.19-153.073-68.347-9.134-42.52-54.804-88.19 153.073-74.017-42.835 152.128-262.995 98.584 127.561 160.002 21.733zM228.349 348.654l-152.128-263.31 160.002-21.733 98.899-127.561 151.813 262.995-74.017 42.835-88.19-153.073-42.52 54.804-68.347 9.134 88.19 153.073zM512.083 960l-25.083-18.333-87-63.417-138.75 0.25-42.583-132-112.417-81.333 43.083-131.833-43.083-131.833 112.417-81.333 42.583-132 138.75 0.25 112.083-81.75 112.083 81.75 138.75-0.25 42.583 132 112.333 81.333-43.083 131.833 43.083 131.833-112.333 81.333-42.583 132-138.75-0.25zM512 854.333l84.333-61.417 104.417 0.083 32.083-99.333 84.5-61.167-32.417-99.167 32.417-99.167-84.5-61.167-32.083-99.333-104.417 0.083-84.25-61.417-84.417 61.417-104.25-0.083-32.083 99.333-84.583 61.167 32.417 99.167-32.417 99.167 84.583 61.167 32.083 99.333 104.25-0.083zM512 704c-93.751 0-170.667-76.915-170.667-170.667s76.915-170.667 170.667-170.667c93.751 0 170.667 76.915 170.667 170.667s-76.915 170.667-170.667 170.667zM512 618.667c47.634 0 85.333-37.7 85.333-85.333s-37.7-85.333-85.333-85.333c-47.634 0-85.333 37.7-85.333 85.333s37.7 85.333 85.333 85.333z" />
<glyph unicode="&#xe913;" glyph-name="web-CIL" d="M591.027 464.789c0-22.765 0-45.531 0-68.296 0-37.681 10.205-50.241 41.605-51.811 41.605-2.355 68.296 17.27 69.081 53.381 1.57 46.316 0.785 93.417 0 139.732 0 21.195 3.925 40.821 26.69 51.026 29.83 14.13 62.801-3.14 64.371-37.681 2.355-56.521 1.57-113.827 0-170.348-3.14-111.472-156.217-153.077-227.652-107.547-18.055 10.99-29.83 10.99-47.885 0.785-81.641-45.531-175.842-7.065-205.672 82.426-12.56 39.251-18.84 79.286-25.905 119.322-4.71 25.12-8.635 49.456-40.82 47.101-31.4-1.57-46.315-22.765-48.67-51.811-4.71-49.456 1.57-97.342 19.625-143.657 50.24-125.602 142.871-202.533 275.538-220.589 131.881-18.84 241.782 28.26 323.423 134.237 15.7 20.41 22.765 29.83 46.315 7.85 38.465-36.111 40.035-33.756 6.28-73.791-119.321-144.442-324.208-193.898-497.695-119.322-174.272 75.361-279.463 256.699-255.912 442.747 5.495 45.531 28.26 79.286 72.221 94.987 50.24 17.27 102.051 26.69 149.936-6.28 14.915-10.205 21.195-25.905 25.12-43.176 10.99-48.671 21.98-97.342 32.185-146.012 7.85-34.541 28.26-53.381 57.306-51.026 29.83 2.355 50.24 25.905 50.24 62.016 0.785 45.531 0 91.061 0 136.592 0.785 32.971 17.27 51.026 46.315 50.241 30.615-1.57 43.96-19.625 43.175-49.456 0-29.045 0.785-55.736 0.785-81.641zM539.216 874.566c154.646-5.495 275.538-70.651 361.888-200.178 2.355-3.925 18.055-32.186 10.205-34.541-47.1-15.7-58.876-40.036-64.371-31.401-6.28 7.85-21.98 32.186-28.26 40.821-120.891 167.208-358.748 192.328-511.825 53.381-3.925-3.925-7.85-7.85-12.56-11.775-20.41-18.055-41.605-19.625-60.446 0.785-18.055 19.625-14.915 41.606 4.71 60.446 62.801 61.231 136.591 99.697 222.942 115.397 25.12 3.925 51.025 7.85 77.716 7.065z" />
<glyph unicode="&#xe914;" horiz-adv-x="1280" d="M57.728 428.611c0 103.407 0 207.721 0 311.128 0 53.518 42.633 96.15 96.15 96.15 165.995 0 331.99 0 497.986 0 7.257 0 8.164-1.814 5.443-8.164-7.257-20.863-14.513-40.818-20.863-61.681-1.814-6.35-5.443-8.164-11.792-8.164-154.203 0-308.406 0-462.61 0-5.442 0-10.885 0-15.42-1.814-8.164-3.628-10.885-10.885-10.885-19.956 0-72.566 0-145.132 0-217.699 0-131.526 0-263.053 0-394.579 0-19.049 5.442-24.491 24.491-24.491 180.508 0 361.017 0 541.525 0 18.142 0 24.491 5.442 24.491 24.491 0 74.38 0 148.761 0 223.141 0 18.142 9.978 32.655 25.398 38.097s31.748 1.814 42.633-10.885c6.35-7.257 9.978-14.513 9.978-24.491 0-78.916 0-158.739 0-237.654 0-48.075-43.54-90.708-91.615-90.708-187.765 0-375.53 0-563.295 0-48.075 0-90.708 43.54-90.708 92.522-0.907 105.221-0.907 209.535-0.907 314.756z" />
<glyph unicode="&#xe915;" horiz-adv-x="1280" d="M534.851 366.93c9.071 20.863 16.327 40.819 24.491 60.774 53.518 131.526 106.128 263.96 159.646 395.486 3.628 9.071 5.443 19.049 9.071 28.119 4.535 12.699 12.699 20.863 26.305 21.77 33.562 1.814 67.124 2.721 100.686-0.907 15.42-1.814 20.863-10.885 19.049-26.305-1.815-12.699-6.35-24.491-11.792-36.283-83.451-198.65-165.995-397.3-249.446-595.95-9.071-20.863-5.442-26.305-38.097-25.398-20.863 0-41.726 0-62.588 0-21.77 0-28.119 3.628-36.283 24.491-14.513 39.004-26.305 78.916-39.004 118.827-19.956 61.681-38.097 122.455-58.053 184.137-9.071 26.305-20.863 51.703-31.748 77.102-1.814 3.628-3.628 7.257-4.535 10.885-4.535 16.327 0.907 25.398 18.142 26.305 26.305 0.907 52.611 0 78.916 0 15.42 0 25.398-8.164 29.934-22.677 9.071-27.212 15.42-54.425 22.677-81.637 13.606-49.889 26.305-99.779 39.004-149.668 1.814-2.721 1.814-4.535 3.628-9.071z" />
<glyph unicode="&#xe916;" horiz-adv-x="1280" d="M990.204 355.138c6.35 20.863 11.792 39.004 17.234 58.053 24.491 80.73 48.982 162.367 73.473 243.097 7.257 24.491 19.956 33.562 45.354 33.562 20.863 0 41.726 0 61.681 0 29.026 0 40.819-17.234 30.841-44.447-20.863-57.146-42.633-114.292-63.495-171.438-30.841-82.544-61.681-165.995-91.615-248.539-2.721-6.35-5.443-13.606-9.071-19.049-7.257-12.699-19.049-19.049-32.655-19.049-23.584-0.907-47.168-0.907-70.752 0-15.42 0-26.305 8.164-32.655 21.77-10.885 24.491-19.049 48.982-28.119 74.38-32.655 88.894-65.31 177.787-97.964 267.588-2.721 7.257-2.721 12.699 0.907 19.956 17.234 37.19 33.562 75.287 49.889 113.385 2.721 5.442 5.443 7.257 10.885 7.257 24.491-0.907 36.283-8.164 43.54-33.562 26.305-87.079 52.611-174.159 78.916-261.238 5.442-13.606 9.071-26.305 13.606-41.726z" />
<glyph unicode="&#xe917;" glyph-name="stamp" horiz-adv-x="923" d="M822.099 2.158l-780.454 295.734c-1.612 0.573-3.47 0.905-5.407 0.905-3.056 0-5.918-0.825-8.378-2.265l0.078 0.042c-3.959-2.565-6.71-6.705-7.371-11.512l-0.010-0.085c-0.438-3.493-0.687-7.536-0.687-11.636 0-42.049 26.257-77.966 63.27-92.248l0.676-0.229 629.424-238.538c10.395-4.058 22.429-6.409 35.013-6.409 33.519 0 63.141 16.684 81.014 42.201l0.211 0.318c1.721 2.575 2.747 5.741 2.747 9.147 0 1.624-0.233 3.193-0.667 4.676l0.029-0.117c-1.633 4.566-5.044 8.15-9.378 9.974l-0.111 0.041zM891.684 221.982c-8.444 7.767-18.425 14.020-29.414 18.237l-0.634 0.214-206.118 79.073c-23.992 9.262-40.703 32.139-40.703 58.919 0 8 1.491 15.653 4.211 22.694l-0.146-0.43 9.489 26.358c32.941 81.149 84.452 148.92 149.487 200.335l1.016 0.775c32.013 26.198 55.021 62.333 64.34 103.655l0.237 1.249c1.942 8.798 3.353 19.19 3.932 29.804l0.022 0.508c0.072 1.958 0.113 4.257 0.113 6.566 0 72.892-40.813 136.253-100.833 168.476l-1.021 0.501c-25.191 13.283-55.053 21.079-86.735 21.079-58.81 0-111.346-26.863-146.007-68.988l-0.261-0.326c-12.497-15.028-22.749-32.489-29.9-51.47l-0.412-1.245c-7.474-19.419-11.803-41.885-11.803-65.362 0-13.44 1.419-26.549 4.115-39.185l-0.219 1.225c4.512-24.228 7.093-52.103 7.093-80.581 0-62.144-12.289-121.417-34.57-175.523l1.119 3.069-5.799-15.551c-9.158-24.023-32.005-40.779-58.765-40.779-8.060 0-15.765 1.52-22.843 4.289l0.427-0.147-206.118 79.073c-8.215 3.212-17.724 5.377-27.643 6.046l-0.296 0.016c-1.658 0.104-3.596 0.163-5.548 0.163-40.144 0-74.433-25.068-88.067-60.405l-0.219-0.645-33.211-85.926c-3.69-10.016 5.008-22.668 19.505-28.203l843.186-319.193c1.636-0.626 3.528-0.989 5.506-0.989 6.722 0 12.464 4.193 14.753 10.107l0.037 0.108 33.474 86.981c4.237 10.355 6.696 22.372 6.696 34.964 0 27.95-12.118 53.069-31.386 70.391l-0.087 0.077z" />
</font>
</defs>
</svg>
