<svg xmlns="http://www.w3.org/2000/svg" viewBox="0 0 183.74 40.25"><defs><style>.cls-1{fill:#1981c5;}.cls-2{fill:#2d2d2d;}</style></defs><g id="Calque_2" data-name="Calque 2"><g id="Calque_1-2" data-name="Calque 1"><path class="cls-1" d="M9.07,5A4.17,4.17,0,0,1,7.72,8.28a4.63,4.63,0,0,1-3.18,1.2,4.64,4.64,0,0,1-3.19-1.2A4.17,4.17,0,0,1,0,5,4.16,4.16,0,0,1,1.35,1.71,4.64,4.64,0,0,1,4.54.51a4.63,4.63,0,0,1,3.18,1.2A4.16,4.16,0,0,1,9.07,5ZM8.36,39.54H.76V12.74h7.6Z"/><path class="cls-1" d="M40.36,38.67c-.68.21-1.46.4-2.34.59s-1.81.35-2.78.48-2,.25-3,.34-2,.12-2.87.12a16.73,16.73,0,0,1-5.91-1,11.85,11.85,0,0,1-4.39-2.77,12,12,0,0,1-2.72-4.38,16.74,16.74,0,0,1-1-5.79,19.89,19.89,0,0,1,.82-5.88A12.71,12.71,0,0,1,18.6,16a10,10,0,0,1,3.75-2.8,12.49,12.49,0,0,1,5.07-1,12.23,12.23,0,0,1,2.83.3,16.39,16.39,0,0,1,2.52.87V1.22L40.36,0ZM23.19,25.94a9.3,9.3,0,0,0,1.58,5.65,5.44,5.44,0,0,0,4.69,2.14c.68,0,1.3,0,1.88-.07s1.05-.11,1.43-.18V19.67a6.76,6.76,0,0,0-1.86-.77,9.17,9.17,0,0,0-2.32-.3Q23.19,18.6,23.19,25.94Z"/><path class="cls-2" d="M46.22,26.34a16.21,16.21,0,0,1,1.1-6.24,13.4,13.4,0,0,1,2.87-4.46,11.94,11.94,0,0,1,4.11-2.7A12.82,12.82,0,0,1,59.06,12a11.84,11.84,0,0,1,9,3.49c2.21,2.32,3.31,5.75,3.31,10.26,0,.44,0,.93,0,1.45s-.07,1-.1,1.41H54a5.06,5.06,0,0,0,2.19,3.72,8.85,8.85,0,0,0,5.2,1.37,22.42,22.42,0,0,0,4.1-.38,16,16,0,0,0,3.28-.94l1,6.16a9.62,9.62,0,0,1-1.63.61,19,19,0,0,1-2.27.54c-.83.15-1.72.28-2.67.38a27.21,27.21,0,0,1-2.85.15,16.79,16.79,0,0,1-6.3-1.07,12.21,12.21,0,0,1-4.43-2.93,11.61,11.61,0,0,1-2.6-4.4A17.53,17.53,0,0,1,46.22,26.34Zm17.83-2.9a7.57,7.57,0,0,0-.33-1.89,4.64,4.64,0,0,0-.86-1.63,4.8,4.8,0,0,0-1.48-1.17,4.9,4.9,0,0,0-2.22-.46,5.06,5.06,0,0,0-2.19.44,4.51,4.51,0,0,0-1.53,1.14,5.3,5.3,0,0,0-.94,1.66A10.68,10.68,0,0,0,54,23.44Z"/><path class="cls-2" d="M88,40.05a18.81,18.81,0,0,1-5.37-.71,7.84,7.84,0,0,1-3.26-1.86,6.2,6.2,0,0,1-1.64-2.91,16.11,16.11,0,0,1-.43-3.84V1.22L84.84,0V29.2A9.23,9.23,0,0,0,85,31a3.19,3.19,0,0,0,.58,1.38,3.1,3.1,0,0,0,1.25.91,6.79,6.79,0,0,0,2.19.46Z"/><path class="cls-2" d="M101.66,5a4.17,4.17,0,0,1-1.35,3.29,4.83,4.83,0,0,1-6.37,0A4.17,4.17,0,0,1,92.59,5a4.16,4.16,0,0,1,1.35-3.28,4.83,4.83,0,0,1,6.37,0A4.16,4.16,0,0,1,101.66,5Zm-.72,34.55H93.35V12.74h7.59Z"/><path class="cls-2" d="M133,26.14a16.9,16.9,0,0,1-.94,5.81,12.38,12.38,0,0,1-2.72,4.43,12,12,0,0,1-4.39,2.83,16.49,16.49,0,0,1-5.91,1q-1.36,0-2.88-.12c-1-.09-2-.2-3-.34s-1.9-.29-2.78-.48-1.66-.38-2.34-.59V1.22L115.67,0V13.35a15,15,0,0,1,2.65-.87,13.85,13.85,0,0,1,3-.3,12.14,12.14,0,0,1,5,1A9.94,9.94,0,0,1,130,16a12.74,12.74,0,0,1,2.24,4.41A20,20,0,0,1,133,26.14Zm-7.74-.2q0-7.35-5.4-7.34a9.12,9.12,0,0,0-2.32.3,6.63,6.63,0,0,0-1.86.77V33.48c.37.07.85.12,1.43.18s1.2.07,1.88.07a5.45,5.45,0,0,0,4.69-2.14A9.3,9.3,0,0,0,125.25,25.94Z"/><path class="cls-2" d="M155,19.46c-.68-.17-1.48-.34-2.4-.53a14.56,14.56,0,0,0-3-.28,12.81,12.81,0,0,0-1.71.13,9.45,9.45,0,0,0-1.5.28V39.54h-7.6V14.17a46,46,0,0,1,4.82-1.36,28,28,0,0,1,6.19-.63c.41,0,.9,0,1.48.07s1.15.12,1.73.21,1.15.19,1.73.3a8.22,8.22,0,0,1,1.48.44Z"/><path class="cls-2" d="M158.57,26.34a16.4,16.4,0,0,1,1.1-6.24,13.42,13.42,0,0,1,2.88-4.46,11.9,11.9,0,0,1,4.1-2.7,12.82,12.82,0,0,1,4.76-.91,11.83,11.83,0,0,1,9,3.49c2.21,2.32,3.31,5.75,3.31,10.26,0,.44,0,.93-.05,1.45s-.07,1-.1,1.41H166.37a5.06,5.06,0,0,0,2.19,3.72,8.85,8.85,0,0,0,5.2,1.37,22.34,22.34,0,0,0,4.1-.38,16.13,16.13,0,0,0,3.29-.94l1,6.16a9.77,9.77,0,0,1-1.64.61,19.29,19.29,0,0,1-2.26.54c-.84.15-1.73.28-2.68.38a27.21,27.21,0,0,1-2.85.15,16.74,16.74,0,0,1-6.29-1.07A12.17,12.17,0,0,1,162,36.25a11.61,11.61,0,0,1-2.6-4.4A17.53,17.53,0,0,1,158.57,26.34Zm17.84-2.9a8.6,8.6,0,0,0-.33-1.89,4.83,4.83,0,0,0-.87-1.63,4.68,4.68,0,0,0-1.48-1.17,4.87,4.87,0,0,0-2.22-.46,5.12,5.12,0,0,0-2.19.44,4.38,4.38,0,0,0-1.52,1.14,5.14,5.14,0,0,0-1,1.66,10.68,10.68,0,0,0-.48,1.91Z"/></g></g></svg>