<svg xmlns="http://www.w3.org/2000/svg" viewBox="0 0 466.4 98.95"><defs><style>.cls-1{fill:#408a86;}.cls-2{fill:#2d2d2d;}</style></defs><g id="Calque_2" data-name="Calque 2"><g id="Calque_1-2" data-name="Calque 1"><path class="cls-1" d="M0,65.24A37.79,37.79,0,0,1,2.25,52.15,31.38,31.38,0,0,1,8.76,41.44,31.17,31.17,0,0,1,19.11,34.2,34.18,34.18,0,0,1,33,31.52a44.63,44.63,0,0,1,9.37.92,45.24,45.24,0,0,1,8.28,2.61L46.86,49.54a45.81,45.81,0,0,0-5.6-1.71,29.65,29.65,0,0,0-6.82-.73q-8,0-12,5t-4,13.15q0,8.64,3.71,13.39t13,4.74a43.86,43.86,0,0,0,7.06-.61,29.81,29.81,0,0,0,6.94-1.94l2.56,14.85A42.92,42.92,0,0,1,43.82,98a52.23,52.23,0,0,1-10.47,1,39.25,39.25,0,0,1-15.09-2.62A28.41,28.41,0,0,1,7.85,89.22a27.76,27.76,0,0,1-6-10.65A45.16,45.16,0,0,1,0,65.24Z"/><path class="cls-1" d="M120.74,65.12a41.63,41.63,0,0,1-2.19,13.81,30,30,0,0,1-6.33,10.71,28.53,28.53,0,0,1-9.92,6.88,33.12,33.12,0,0,1-13,2.43A32.79,32.79,0,0,1,76.5,96.52a28.34,28.34,0,0,1-9.92-6.88,31.41,31.41,0,0,1-6.45-10.71,39.43,39.43,0,0,1-2.31-13.81,38.32,38.32,0,0,1,2.37-13.76,31.21,31.21,0,0,1,6.57-10.59,29.52,29.52,0,0,1,10-6.81,32,32,0,0,1,12.6-2.44A32.37,32.37,0,0,1,102.06,34,28.89,28.89,0,0,1,112,40.77a31.27,31.27,0,0,1,6.45,10.59A39.22,39.22,0,0,1,120.74,65.12Zm-18.5,0q0-8.4-3.35-13.21a10.92,10.92,0,0,0-9.55-4.81,11.09,11.09,0,0,0-9.62,4.81q-3.41,4.81-3.41,13.21c0,5.59,1.14,10,3.41,13.32a11,11,0,0,0,9.62,4.93,10.84,10.84,0,0,0,9.55-4.93C101.12,75.16,102.24,70.71,102.24,65.12Z"/><path class="cls-1" d="M169.91,63.29q0-8.76-2.25-12.42t-7.73-3.65a33.2,33.2,0,0,0-3.53.19c-1.22.12-2.39.26-3.53.42V97.25H134.74V35.42c1.54-.41,3.34-.83,5.41-1.28s4.26-.85,6.57-1.22,4.69-.65,7.12-.85,4.83-.3,7.19-.3a30.29,30.29,0,0,1,11.25,1.76,25.47,25.47,0,0,1,7.12,4.2,31,31,0,0,1,8.95-4.38,31.49,31.49,0,0,1,9.31-1.58,32,32,0,0,1,12.6,2.13,19.09,19.09,0,0,1,7.85,6,22.92,22.92,0,0,1,4,9.25,59.77,59.77,0,0,1,1.09,11.93V97.25H205.09v-34q0-8.76-2.26-12.42c-1.5-2.43-4.07-3.65-7.73-3.65A16.24,16.24,0,0,0,191,48a15.55,15.55,0,0,0-4.32,1.82,28,28,0,0,1,1.09,5.9q.24,3.1.24,6.64V97.25H169.91Z"/><path class="cls-2" d="M236.61,65.72a39.08,39.08,0,0,1,2.62-14.91,31.84,31.84,0,0,1,6.87-10.64,28.65,28.65,0,0,1,9.8-6.46,30.7,30.7,0,0,1,11.38-2.19q13.64,0,21.54,8.34t7.92,24.53c0,1-.05,2.21-.13,3.46s-.16,2.38-.24,3.35H255.23a12,12,0,0,0,5.24,8.89q4.62,3.28,12.41,3.28a52.32,52.32,0,0,0,9.8-.91,37.34,37.34,0,0,0,7.85-2.25L293,94.94a26,26,0,0,1-3.89,1.46,51.86,51.86,0,0,1-5.42,1.27c-2,.37-4.12.67-6.39.92a64.73,64.73,0,0,1-6.81.36,40.45,40.45,0,0,1-15-2.55,29.35,29.35,0,0,1-10.58-7,27.63,27.63,0,0,1-6.21-10.53A41.7,41.7,0,0,1,236.61,65.72Zm45.28-55.5-20,16.92-8.33-7.42L270.75,0Zm-2.68,48.57a19,19,0,0,0-.79-4.51,11.38,11.38,0,0,0-2.07-3.89,10.93,10.93,0,0,0-3.53-2.8,11.52,11.52,0,0,0-5.3-1.1,12.14,12.14,0,0,0-5.23,1,10.73,10.73,0,0,0-3.65,2.74,12.1,12.1,0,0,0-2.25,3.95,26.63,26.63,0,0,0-1.16,4.57Z"/><path class="cls-2" d="M336.29,98.47a45.82,45.82,0,0,1-12.84-1.71,18.93,18.93,0,0,1-7.79-4.44,14.72,14.72,0,0,1-3.89-6.94,37.41,37.41,0,0,1-1-9.19V5.72L328.87,2.8V72.54a24.24,24.24,0,0,0,.36,4.38,7.63,7.63,0,0,0,1.4,3.29,7.52,7.52,0,0,0,3,2.19,16.3,16.3,0,0,0,5.24,1.09Z"/><path class="cls-2" d="M403.84,95.06a101.4,101.4,0,0,1-11.93,2.49,98,98,0,0,1-15.33,1.16A36.41,36.41,0,0,1,363,96.52a20.58,20.58,0,0,1-8.58-6.15,24.11,24.11,0,0,1-4.51-9.43,50.87,50.87,0,0,1-1.34-12V33.23h18.14V66.7q0,8.76,2.31,12.66t8.64,3.89q1.95,0,4.14-.18c1.46-.12,2.76-.26,3.9-.43V33.23h18.13Z"/><path class="cls-2" d="M439.26,84.22q5,0,7.06-1a3.75,3.75,0,0,0,2.07-3.77q0-2.19-2.68-3.84a51.21,51.21,0,0,0-8.15-3.71,83.66,83.66,0,0,1-7.73-3.28,22.91,22.91,0,0,1-5.91-4.08,16.48,16.48,0,0,1-3.77-5.66A21,21,0,0,1,418.81,51q0-9,6.7-14.24t18.38-5.24a58.86,58.86,0,0,1,11.19,1,52.32,52.32,0,0,1,8.52,2.25l-3.16,14.12a66.87,66.87,0,0,0-6.88-2,37.21,37.21,0,0,0-8.34-.85q-8.52,0-8.52,4.74a4.91,4.91,0,0,0,.37,2,4.15,4.15,0,0,0,1.46,1.65,21,21,0,0,0,3,1.71c1.26.61,2.86,1.29,4.81,2a74.39,74.39,0,0,1,9.86,4.36,23.76,23.76,0,0,1,6.15,4.64,14.41,14.41,0,0,1,3.16,5.52,24.49,24.49,0,0,1,.91,7q0,9.48-7.12,14.34T439.14,99A57.57,57.57,0,0,1,425,97.49a57.09,57.09,0,0,1-7.85-2.43l3-14.73a59.06,59.06,0,0,0,9.5,2.86A46,46,0,0,0,439.26,84.22Z"/></g></g></svg>