<svg xmlns="http://www.w3.org/2000/svg" viewBox="0 0 1000 206.7"><defs><style>.cls-1{fill:#1981c5;}.cls-2{fill:#2d2d2d;}</style></defs><g id="Calque_2" data-name="Calque 2"><g id="Calque_1-2" data-name="Calque 1"><path class="cls-1" d="M46.58,25.64q0,10.74-6.94,16.88a23.83,23.83,0,0,1-16.35,6.15A23.81,23.81,0,0,1,6.94,42.52Q0,36.37,0,25.64T6.94,8.77A23.81,23.81,0,0,1,23.29,2.62,23.83,23.83,0,0,1,39.64,8.77Q46.57,14.91,46.58,25.64ZM42.91,203h-39V65.41h39Z"/><path class="cls-1" d="M263.73,198.59q-5.24,1.57-12,3t-14.26,2.48q-7.45,1-15.18,1.71t-14.78.65q-17,0-30.35-5a61,61,0,0,1-22.51-14.26,61.8,61.8,0,0,1-14-22.5,85.82,85.82,0,0,1-4.84-29.7A101.4,101.4,0,0,1,140,104.79,65.72,65.72,0,0,1,152,81.9a51.63,51.63,0,0,1,19.23-14.4,64.58,64.58,0,0,1,26-5A61.65,61.65,0,0,1,211.8,64.1a78.88,78.88,0,0,1,12.95,4.45V6.28l39-6.28Zm-88.17-65.41q0,18.06,8.11,29t24.07,11q5.23,0,9.68-.39t7.33-.92V101a34.13,34.13,0,0,0-9.55-3.93,45.87,45.87,0,0,0-11.9-1.57Q175.55,95.5,175.56,133.18Z"/><path class="cls-2" d="M293.82,135.27q0-18.32,5.63-32.05a68.54,68.54,0,0,1,14.78-22.89,61.54,61.54,0,0,1,21.06-13.87,66,66,0,0,1,24.47-4.71q29.3,0,46.31,17.92t17,52.72q0,3.41-.26,7.46c-.18,2.71-.36,5.1-.53,7.2H333.86a25.86,25.86,0,0,0,11.24,19.1q9.94,7,26.7,7.06a112.66,112.66,0,0,0,21.06-2,79.46,79.46,0,0,0,16.87-4.84L415,198.07a54.64,54.64,0,0,1-8.37,3.14A110.26,110.26,0,0,1,395,204q-6.42,1.19-13.74,2a138.26,138.26,0,0,1-14.65.78q-18.57,0-32.31-5.49a63,63,0,0,1-22.77-15.05,59.65,59.65,0,0,1-13.34-22.63A89.59,89.59,0,0,1,293.82,135.27Zm91.58-14.91a40.51,40.51,0,0,0-1.7-9.68,24.25,24.25,0,0,0-4.45-8.37,23.55,23.55,0,0,0-7.59-6,24.69,24.69,0,0,0-11.38-2.36A26.34,26.34,0,0,0,349,96.15a23.35,23.35,0,0,0-7.85,5.89,26.41,26.41,0,0,0-4.84,8.51,55.1,55.1,0,0,0-2.48,9.81Z"/><path class="cls-2" d="M508.11,205.66q-17-.27-27.6-3.67t-16.75-9.55a31.61,31.61,0,0,1-8.37-14.91,80.65,80.65,0,0,1-2.23-19.76V6.28l39-6.28V149.92a50.6,50.6,0,0,0,.79,9.42,16.16,16.16,0,0,0,3,7.07,15.8,15.8,0,0,0,6.41,4.71,35.13,35.13,0,0,0,11.25,2.35Z"/><path class="cls-2" d="M578.49,25.64q0,10.74-6.93,16.88a24.82,24.82,0,0,1-32.71,0q-6.93-6.15-6.93-16.88t6.93-16.87a24.82,24.82,0,0,1,32.71,0Q578.49,14.91,578.49,25.64ZM574.83,203h-39V65.41h39Z"/><path class="cls-2" d="M739.4,134.23a86.84,86.84,0,0,1-4.84,29.82,63,63,0,0,1-14,22.77,61.49,61.49,0,0,1-22.5,14.52q-13.34,5.1-30.35,5.1-7.07,0-14.78-.65c-5.15-.44-10.2-1-15.18-1.71s-9.73-1.52-14.26-2.48-8.55-2-12-3V6.28l39-6.28V68.55a73.22,73.22,0,0,1,13.61-4.45,70.28,70.28,0,0,1,15.17-1.57q14.65,0,25.91,5.11A50.69,50.69,0,0,1,724,82.16a65.25,65.25,0,0,1,11.52,22.63A103.44,103.44,0,0,1,739.4,134.23Zm-39.77-1q0-37.68-27.73-37.68A45.76,45.76,0,0,0,660,97.07a33.82,33.82,0,0,0-9.56,3.93v70.9q2.88.53,7.33.92t9.68.39q16,0,24.07-11T699.63,133.18Z"/><path class="cls-2" d="M852.43,100q-5.23-1.31-12.3-2.75A76.61,76.61,0,0,0,825,95.76a69.88,69.88,0,0,0-8.77.66,49.5,49.5,0,0,0-7.71,1.44V203h-39V72.74a236.26,236.26,0,0,1,24.73-6.94A142.93,142.93,0,0,1,826,62.53q3.13,0,7.59.4c3,.26,5.93.61,8.9,1s5.92,1,8.89,1.57A42.62,42.62,0,0,1,859,67.77Z"/><path class="cls-2" d="M870.75,135.27q0-18.32,5.63-32.05a68.38,68.38,0,0,1,14.78-22.89,61.35,61.35,0,0,1,21.06-13.87,65.91,65.91,0,0,1,24.46-4.71Q966,61.75,983,79.67t17,52.72q0,3.41-.26,7.46c-.18,2.71-.36,5.1-.53,7.2H910.78A25.9,25.9,0,0,0,922,166.15q9.94,7,26.69,7.06a112.5,112.5,0,0,0,21.06-2,79.74,79.74,0,0,0,16.88-4.84l5.23,31.66a54.64,54.64,0,0,1-8.37,3.14A109.88,109.88,0,0,1,971.87,204q-6.4,1.19-13.74,2a138.26,138.26,0,0,1-14.65.78q-18.59,0-32.31-5.49a63,63,0,0,1-22.76-15.05,59.67,59.67,0,0,1-13.35-22.63A89.59,89.59,0,0,1,870.75,135.27Zm91.58-14.91a41,41,0,0,0-1.71-9.68,24.23,24.23,0,0,0-4.44-8.37,23.77,23.77,0,0,0-7.59-6,24.76,24.76,0,0,0-11.39-2.36A26.34,26.34,0,0,0,926,96.15a23.31,23.31,0,0,0-7.84,5.89,26.43,26.43,0,0,0-4.85,8.51,56,56,0,0,0-2.48,9.81Z"/></g></g></svg>