<?xml version="1.0" encoding="UTF-8"?>
<svg id="Calque_2" xmlns="http://www.w3.org/2000/svg" viewBox="0 0 997.97 145">
    <defs><style>.cls-1{fill:#5B5B5B;}</style>
    </defs>
    <g id="libriciel_SCOP">
        <g>
            <g>
                <path class="cls-1" d="M877.2,54.54c-3.2,0-5.87-.62-8.02-1.87-2.15-1.25-3.77-3.08-4.86-5.49-1.1-2.41-1.71-5.37-1.84-8.87l8.34-1.64c.09,2.06,.34,3.88,.76,5.45,.42,1.58,1.05,2.79,1.91,3.65,.85,.85,1.98,1.28,3.38,1.28,1.58,0,2.69-.47,3.35-1.41,.66-.94,.99-2.14,.99-3.58,0-2.32-.53-4.23-1.58-5.72-1.05-1.49-2.45-2.98-4.21-4.47l-6.7-5.91c-1.88-1.62-3.38-3.43-4.5-5.42-1.12-1.99-1.68-4.46-1.68-7.39,0-4.21,1.23-7.45,3.68-9.72,2.45-2.28,5.8-3.42,10.05-3.42,2.5,0,4.58,.38,6.24,1.15,1.66,.77,2.99,1.83,3.98,3.19,.99,1.36,1.72,2.9,2.2,4.63,.48,1.73,.79,3.56,.92,5.49l-8.28,1.45c-.09-1.66-.27-3.15-.56-4.47-.29-1.31-.79-2.34-1.51-3.09-.72-.74-1.79-1.12-3.19-1.12s-2.55,.47-3.32,1.41c-.77,.94-1.15,2.11-1.15,3.52,0,1.8,.37,3.28,1.12,4.44,.74,1.16,1.82,2.36,3.22,3.58l6.64,5.85c2.19,1.84,4.06,4,5.62,6.47,1.55,2.48,2.33,5.46,2.33,8.97,0,2.54-.56,4.8-1.68,6.77s-2.67,3.52-4.67,4.63c-1.99,1.12-4.33,1.68-7,1.68Z"/><path class="cls-1" d="M910.58,54.54c-3.9,0-6.95-.77-9.17-2.3-2.21-1.53-3.76-3.62-4.63-6.27-.88-2.65-1.31-5.71-1.31-9.17V17.81c0-3.64,.44-6.79,1.31-9.46,.88-2.67,2.42-4.73,4.63-6.18,2.21-1.45,5.27-2.17,9.17-2.17,3.68,0,6.56,.62,8.64,1.87,2.08,1.25,3.56,3.03,4.44,5.36,.88,2.32,1.31,5.02,1.31,8.08v4.47h-9.33v-4.6c0-1.49-.08-2.85-.23-4.07-.15-1.23-.57-2.2-1.25-2.92-.68-.72-1.85-1.08-3.52-1.08s-2.88,.38-3.65,1.15c-.77,.77-1.26,1.8-1.48,3.09-.22,1.29-.33,2.75-.33,4.37v23.13c0,1.93,.15,3.52,.46,4.76,.31,1.25,.86,2.19,1.68,2.83,.81,.64,1.92,.95,3.32,.95,1.62,0,2.77-.38,3.45-1.15,.68-.77,1.11-1.78,1.28-3.06,.17-1.27,.26-2.69,.26-4.27v-4.8h9.33v4.27c0,3.15-.42,5.95-1.25,8.38-.83,2.43-2.29,4.34-4.37,5.72-2.08,1.38-5,2.07-8.77,2.07Z"/><path class="cls-1" d="M946.19,54.54c-3.77,0-6.77-.7-9-2.1-2.23-1.4-3.83-3.42-4.8-6.04-.96-2.63-1.45-5.74-1.45-9.33V17.15c0-3.59,.48-6.67,1.45-9.23,.96-2.56,2.56-4.52,4.8-5.88,2.23-1.36,5.23-2.04,9-2.04s6.89,.68,9.1,2.04c2.21,1.36,3.81,3.32,4.8,5.88,.99,2.56,1.48,5.64,1.48,9.23v19.97c0,3.55-.49,6.63-1.48,9.23-.99,2.61-2.58,4.62-4.8,6.04-2.21,1.42-5.25,2.14-9.1,2.14Zm0-7.16c1.62,0,2.81-.35,3.58-1.05,.77-.7,1.28-1.66,1.54-2.89,.26-1.23,.39-2.56,.39-4.01V14.92c0-1.49-.13-2.83-.39-4.01s-.78-2.11-1.54-2.79c-.77-.68-1.96-1.02-3.58-1.02-1.53,0-2.69,.34-3.48,1.02-.79,.68-1.31,1.61-1.58,2.79-.26,1.18-.39,2.52-.39,4.01v24.51c0,1.45,.12,2.78,.36,4.01,.24,1.23,.76,2.19,1.54,2.89,.79,.7,1.97,1.05,3.55,1.05Z"/><path class="cls-1" d="M968.73,53.81V.59h15.64c3.2,0,5.79,.59,7.79,1.77,1.99,1.18,3.46,2.9,4.4,5.16,.94,2.26,1.41,4.98,1.41,8.18,0,3.46-.59,6.25-1.77,8.38-1.18,2.13-2.84,3.67-4.96,4.63-2.12,.96-4.63,1.45-7.52,1.45h-5.26v23.65h-9.72Zm9.72-30.49h3.68c1.75,0,3.12-.25,4.11-.76,.99-.5,1.66-1.31,2.04-2.43,.37-1.12,.56-2.62,.56-4.5s-.14-3.49-.43-4.7c-.29-1.2-.9-2.09-1.84-2.66-.94-.57-2.42-.85-4.44-.85h-3.68v15.9Z"/></g><g><path class="cls-1" d="M267.98,115.38v23.8h-82.22V16.11h27.7V115.38h54.52Z"/><path class="cls-1" d="M312.91,18.77c0,4.86-1.57,8.67-4.71,11.45-3.14,2.78-6.84,4.17-11.1,4.17s-7.96-1.39-11.1-4.17c-3.14-2.78-4.71-6.6-4.71-11.45s1.57-8.67,4.71-11.45c3.14-2.78,6.84-4.17,11.1-4.17s7.96,1.39,11.1,4.17c3.14,2.78,4.71,6.6,4.71,11.45Zm-2.49,120.4h-26.46V45.77h26.46v93.41Z"/><path class="cls-1" d="M422.12,92.47c0,7.46-1.1,14.21-3.29,20.25-2.19,6.04-5.36,11.19-9.5,15.45-4.15,4.26-9.23,7.55-15.27,9.86-6.04,2.31-12.91,3.46-20.6,3.46-3.2,0-6.54-.15-10.03-.44-3.49-.3-6.93-.68-10.3-1.15-3.37-.47-6.6-1.03-9.68-1.69-3.08-.65-5.8-1.33-8.17-2.04V5.63l26.46-4.26V47.9c2.96-1.3,6.04-2.31,9.23-3.02,3.2-.71,6.63-1.07,10.3-1.07,6.63,0,12.49,1.15,17.58,3.46,5.09,2.31,9.35,5.59,12.79,9.86,3.43,4.26,6.04,9.38,7.81,15.36,1.78,5.98,2.66,12.64,2.66,19.98Zm-26.99-.71c0-17.05-6.28-25.57-18.82-25.57-2.72,0-5.42,.36-8.08,1.07-2.66,.71-4.83,1.6-6.48,2.66v48.13c1.3,.24,2.96,.44,4.97,.62,2.01,.18,4.2,.27,6.57,.27,7.22,0,12.67-2.49,16.34-7.46,3.67-4.97,5.51-11.54,5.51-19.71Z"/><path class="cls-1" d="M498.84,69.21c-2.37-.59-5.15-1.21-8.35-1.86-3.2-.65-6.63-.98-10.3-.98-1.66,0-3.64,.15-5.95,.44-2.31,.3-4.06,.62-5.24,.98v71.39h-26.46V50.74c4.73-1.66,10.33-3.22,16.78-4.71,6.45-1.48,13.64-2.22,21.58-2.22,1.42,0,3.14,.09,5.15,.27,2.01,.18,4.02,.42,6.04,.71,2.01,.3,4.02,.65,6.04,1.07,2.01,.42,3.73,.92,5.15,1.51l-4.44,21.84Z"/><path class="cls-1" d="M546.43,18.77c0,4.86-1.57,8.67-4.71,11.45-3.14,2.78-6.84,4.17-11.1,4.17s-7.96-1.39-11.1-4.17c-3.14-2.78-4.71-6.6-4.71-11.45s1.57-8.67,4.71-11.45c3.14-2.78,6.84-4.17,11.1-4.17s7.96,1.39,11.1,4.17c3.14,2.78,4.71,6.6,4.71,11.45Zm-2.49,120.4h-26.46V45.77h26.46v93.41Z"/><path class="cls-1" d="M564.37,92.47c0-6.75,1.09-13.11,3.29-19.09,2.19-5.98,5.36-11.19,9.5-15.63,4.14-4.44,9.17-7.96,15.1-10.57,5.92-2.6,12.67-3.91,20.25-3.91,4.97,0,9.53,.44,13.67,1.33,4.14,.89,8.17,2.16,12.08,3.82l-5.51,21.13c-2.49-.95-5.21-1.78-8.17-2.49-2.96-.71-6.28-1.07-9.94-1.07-7.81,0-13.65,2.43-17.49,7.28-3.85,4.86-5.77,11.25-5.77,19.18,0,8.41,1.8,14.92,5.42,19.53,3.61,4.62,9.91,6.93,18.91,6.93,3.2,0,6.63-.29,10.3-.89,3.67-.59,7.04-1.54,10.12-2.84l3.73,21.67c-3.08,1.3-6.93,2.42-11.54,3.37-4.62,.95-9.71,1.42-15.27,1.42-8.52,0-15.87-1.27-22.02-3.82-6.16-2.54-11.22-6.01-15.18-10.39-3.97-4.38-6.87-9.56-8.7-15.54-1.84-5.98-2.75-12.46-2.75-19.45Z"/><path class="cls-1" d="M686.55,18.77c0,4.86-1.57,8.67-4.71,11.45-3.14,2.78-6.84,4.17-11.1,4.17s-7.96-1.39-11.1-4.17c-3.14-2.78-4.71-6.6-4.71-11.45s1.57-8.67,4.71-11.45c3.14-2.78,6.84-4.17,11.1-4.17s7.96,1.39,11.1,4.17c3.14,2.78,4.71,6.6,4.71,11.45Zm-2.49,120.4h-26.46V45.77h26.46v93.41Z"/><path class="cls-1" d="M704.48,93.18c0-8.29,1.27-15.54,3.82-21.75,2.54-6.22,5.89-11.39,10.03-15.54,4.14-4.14,8.91-7.28,14.3-9.41,5.39-2.13,10.92-3.2,16.6-3.2,13.26,0,23.74,4.06,31.43,12.16,7.69,8.11,11.54,20.04,11.54,35.78,0,1.54-.06,3.23-.18,5.06-.12,1.84-.24,3.46-.36,4.88h-60.02c.59,5.45,3.14,9.77,7.64,12.96,4.5,3.2,10.54,4.79,18.11,4.79,4.85,0,9.62-.44,14.3-1.33,4.68-.89,8.49-1.98,11.45-3.29l3.55,21.49c-1.42,.71-3.32,1.42-5.68,2.13-2.37,.71-5,1.33-7.9,1.86-2.9,.53-6.01,.98-9.32,1.33-3.32,.35-6.63,.53-9.94,.53-8.41,0-15.72-1.24-21.93-3.73-6.22-2.49-11.37-5.89-15.45-10.21-4.08-4.32-7.1-9.44-9.06-15.36-1.95-5.92-2.93-12.31-2.93-19.18Zm62.16-10.12c-.12-2.25-.51-4.44-1.15-6.57-.65-2.13-1.66-4.02-3.02-5.68-1.36-1.66-3.08-3.02-5.15-4.08-2.07-1.07-4.65-1.6-7.73-1.6s-5.51,.51-7.64,1.51c-2.13,1.01-3.91,2.34-5.33,4-1.42,1.66-2.52,3.58-3.29,5.77-.77,2.19-1.33,4.41-1.69,6.66h34.98Z"/><path class="cls-1" d="M849.93,140.95c-7.7-.12-13.94-.95-18.74-2.49-4.8-1.54-8.59-3.7-11.37-6.48-2.78-2.78-4.68-6.15-5.68-10.12-1.01-3.97-1.51-8.44-1.51-13.41V5.63l26.46-4.26V103.13c0,2.37,.18,4.5,.53,6.39,.35,1.9,1.03,3.49,2.04,4.79,1,1.3,2.46,2.37,4.35,3.2,1.89,.83,4.44,1.36,7.64,1.6l-3.73,21.84Z"/></g><g><path class="cls-1" d="M.69,17.89l79.4,127.1,12.53-50.85-28.37-50.57c-1.68-2.99-4.22-5.4-7.29-6.92L6.32,11.67c-3.94-1.94-7.96,2.5-5.63,6.22Z"/><path class="cls-1" d="M122.58,78.26l-29.96,15.89-12.53,50.85,88.15-42.43c2.8-1.35,2.88-5.31,.13-6.77l-33.26-17.56c-3.92-2.07-8.6-2.06-12.51,.01Z"/>
            </g>
        </g>
    </g>
</svg>
