<svg id="Calque_1" data-name="Calque 1" xmlns="http://www.w3.org/2000/svg" viewBox="0 0 162.7328 24"><title>Libriciel_white</title><path d="M146.4912,11.7806a1.9616,1.9616,0,0,1-3.9231.0208q0-.01,0-.0208V10.94h1.121v.8405a.8407.8407,0,0,0,1.6814.0135q0-.0068,0-.0135V10.94a1.5274,1.5274,0,0,0-.7285-1.4011l-1.3453-.7566a2.3084,2.3084,0,0,1-.7285-1.9055V5.8963a1.9616,1.9616,0,1,1,3.9231-.0208q0,.01,0,.0208v.84H145.37v-.84a.8407.8407,0,0,0-1.6814-.0135q0,.0068,0,.0135v.84a1.5267,1.5267,0,0,0,.7285,1.4012l1.345.7564a2.3094,2.3094,0,0,1,.7285,1.9055Z" style="fill:#7a7a7a;opacity:0.8"/><path d="M151.7054,11.7806a1.9616,1.9616,0,0,1-3.9231.0208q0-.01,0-.0208V5.8963a1.9616,1.9616,0,1,1,3.9231-.0208q0,.01,0,.0208v.84h-1.1207v-.84a.8407.8407,0,0,0-1.6814-.0135q0,.0068,0,.0135v5.8843a.8407.8407,0,0,0,1.6814.0135q0-.0068,0-.0135V10.94h1.1207Z" style="fill:#7a7a7a;opacity:0.8"/><path d="M157.1564,11.7806a1.9616,1.9616,0,0,1-3.9231.0208q0-.01,0-.0208V5.8963a1.9616,1.9616,0,1,1,3.9231-.0208q0,.01,0,.0208Zm-1.1207,0V5.8963a.8407.8407,0,0,0-1.6814-.0135q0,.0068,0,.0135v5.8843a.8407.8407,0,0,0,1.6814.0135Q156.0357,11.7873,156.0356,11.7806Z" style="fill:#7a7a7a;opacity:0.8"/><path d="M162.7328,7.4373a1.9613,1.9613,0,0,1-1.9612,1.9614h-.8409V13.742H158.81V3.9346h1.9617a1.9613,1.9613,0,0,1,1.9614,1.9612V7.4373Zm-1.1207,0V5.8963a.8375.8375,0,0,0-.8344-.8407h-.8469V8.278h.8407a.8374.8374,0,0,0,.8408-.8339V7.4373Z" style="fill:#7a7a7a;opacity:0.8"/><path d="M50.22,20.5159v1.98h-15.18V4.0163h3.8279v16.5Z" style="fill:#7a7a7a"/><path d="M55.4825,5.4684a1.9941,1.9941,0,0,1-.5414,1.3859,2.0394,2.0394,0,0,1-2.8773,0,2.0449,2.0449,0,0,1,0-2.7721A2.0234,2.0234,0,0,1,54.9252,4.08l.0026.0026A1.967,1.967,0,0,1,55.4825,5.4684ZM55.35,22.4958H51.654V9.0323H55.35Z" style="fill:#7a7a7a"/><path d="M58.782,22.4958V4.0163h3.6958V8.7682h3.3a10.88,10.88,0,0,1,3.3133.4752,7.3131,7.3131,0,0,1,2.5472,1.3727,6.062,6.062,0,0,1,1.6236,2.1647,6.9078,6.9078,0,0,1,.5674,2.8513,6.9077,6.9077,0,0,1-.5674,2.851,6.06,6.06,0,0,1-1.6236,2.1647A7.3057,7.3057,0,0,1,69.0912,22.02a10.88,10.88,0,0,1-3.3133.4752Zm6.9958-1.8479a4.7362,4.7362,0,0,0,1.65-.2773,3.1829,3.1829,0,0,0,1.2937-.8842,4.2552,4.2552,0,0,0,.845-1.5576,7.6254,7.6254,0,0,0,.3036-2.2966,7.6258,7.6258,0,0,0-.3036-2.2969,4.2589,4.2589,0,0,0-.845-1.5576,3.1851,3.1851,0,0,0-1.2937-.8842,4.7362,4.7362,0,0,0-1.65-.2773h-3.3V20.6478Z" style="fill:#7a7a7a"/><path d="M86.4064,10.6161H83.2383a3.6868,3.6868,0,0,0-2.7454.9637,3.92,3.92,0,0,0-.95,2.8643v8.0518H75.8467V14.444A5.2677,5.2677,0,0,1,77.5494,10.26a7.21,7.21,0,0,1,4.8969-1.4915h3.96Z" style="fill:#7a7a7a"/><path d="M92.082,5.4684a1.9942,1.9942,0,0,1-.5414,1.3859,2.0394,2.0394,0,0,1-2.8773,0,2.0449,2.0449,0,0,1,0-2.7721A2.0234,2.0234,0,0,1,91.5248,4.08l.0026.0026A1.967,1.967,0,0,1,92.082,5.4684ZM91.95,22.4958H88.2538V9.0323H91.95Z" style="fill:#7a7a7a"/><path d="M102.259,8.24a9.9913,9.9913,0,0,1,1.69.1452,11.8907,11.8907,0,0,1,1.6233.3963,8.3255,8.3255,0,0,1,1.4521.62,6.3305,6.3305,0,0,1,1.1746.8183l-1.0559,1.5841a9.5664,9.5664,0,0,0-2.2044-1.2673,6.4489,6.4489,0,0,0-2.4153-.4487,4.84,4.84,0,0,0-1.7425.3036,3.3989,3.3989,0,0,0-1.3727.9767,4.7979,4.7979,0,0,0-.9107,1.7292,8.542,8.542,0,0,0-.33,2.5345,8.5372,8.5372,0,0,0,.33,2.5342,4.5671,4.5671,0,0,0,.9372,1.7292,3.5228,3.5228,0,0,0,1.4649.9764,5.6223,5.6223,0,0,0,1.8878.3036,6.4381,6.4381,0,0,0,2.4153-.4487,9.5239,9.5239,0,0,0,2.2044-1.2673l1.0559,1.5841a6.2726,6.2726,0,0,1-1.1746.8183,8.2567,8.2567,0,0,1-1.4521.62,11.8741,11.8741,0,0,1-1.6233.3963,9.986,9.986,0,0,1-1.69.1452,11.3,11.3,0,0,1-3.4187-.4885A7.32,7.32,0,0,1,96.4778,21.11a6.323,6.323,0,0,1-1.6762-2.31,7.91,7.91,0,0,1-.5944-3.1678,7.9374,7.9374,0,0,1,.5944-3.1549,6.45,6.45,0,0,1,1.65-2.3231,7.1352,7.1352,0,0,1,2.5345-1.4255A10.3887,10.3887,0,0,1,102.259,8.24Z" style="fill:#7a7a7a"/><path d="M114.6665,5.4684a1.9942,1.9942,0,0,1-.5414,1.3859,2.0394,2.0394,0,0,1-2.8773,0,2.0449,2.0449,0,0,1,0-2.7721,2.0234,2.0234,0,0,1,2.8615-.0026l.0026.0026A1.967,1.967,0,0,1,114.6665,5.4684Zm-.1324,17.0274h-3.6958V9.0323h3.6958Z" style="fill:#7a7a7a"/><path d="M125.6288,21.1758a6.4381,6.4381,0,0,0,2.4153-.4487,9.5239,9.5239,0,0,0,2.2044-1.2673l1.0559,1.5841a6.2726,6.2726,0,0,1-1.1746.8183,8.2567,8.2567,0,0,1-1.4521.62,11.8741,11.8741,0,0,1-1.6233.3963,9.986,9.986,0,0,1-1.69.1452,11.3,11.3,0,0,1-3.4187-.4885,7.32,7.32,0,0,1-2.6267-1.4255,6.323,6.323,0,0,1-1.6762-2.31,7.91,7.91,0,0,1-.5944-3.1678,8.2565,8.2565,0,0,1,.5679-3.1549A6.4113,6.4113,0,0,1,119.2,10.1543a6.8431,6.8431,0,0,1,2.4158-1.4255,9.3209,9.3209,0,0,1,3.0886-.4885,9.2164,9.2164,0,0,1,2.9831.4752,7.03,7.03,0,0,1,2.429,1.3856,6.7218,6.7218,0,0,1,1.637,2.2042,6.823,6.823,0,0,1,.6071,2.93v1.8479H121.088a4.6747,4.6747,0,0,0,1.5183,3.1414A4.7188,4.7188,0,0,0,125.6288,21.1758Zm-.9239-11.22a3.4982,3.4982,0,0,0-1.4255.29,2.94,2.94,0,0,0-1.1481.9239,5.0489,5.0489,0,0,0-.792,1.6368,9.027,9.027,0,0,0-.33,2.4288h7.3916a7.9238,7.9238,0,0,0-.3168-2.3761,5.09,5.09,0,0,0-.8311-1.65,3.2,3.2,0,0,0-1.1883-.95,3.282,3.282,0,0,0-1.36-.3036Z" style="fill:#7a7a7a"/><path d="M138.3688,22.4958h-3.6958V4.0163h3.6958Z" style="fill:#7a7a7a"/><polygon points="0 0 14.849 24 16.786 15.267 10.982 5.853 0 0" style="fill:#7a7a7a"/><polygon points="23.054 12.287 16.786 15.267 14.849 24 30.708 16.366 23.054 12.287" style="fill:#7a7a7a;opacity:0.8"/></svg>
