<svg xmlns="http://www.w3.org/2000/svg" viewBox="0 0 1000 219.08"><defs><style>.cls-1{fill:#1981c5;}.cls-2{fill:#fff;}</style></defs><g id="Calque_2" data-name="Calque 2"><g id="Calque_1-2" data-name="Calque 1"><path class="cls-1" d="M49.36,27.18q0,11.37-7.35,17.88a25.24,25.24,0,0,1-17.33,6.52A25.26,25.26,0,0,1,7.35,45.06Q0,38.55,0,27.18T7.35,9.29A25.3,25.3,0,0,1,24.68,2.77,25.29,25.29,0,0,1,42,9.29Q49.36,15.82,49.36,27.18Zm-3.88,188H4.16V69.33H45.48Z"/><path class="cls-1" d="M219.66,210.48q-5.55,1.67-12.76,3.19t-15.11,2.63q-7.9,1.11-16.09,1.81T160,218.8q-18,0-32.16-5.27A64.61,64.61,0,0,1,104,198.42a65.41,65.41,0,0,1-14.84-23.85,91.05,91.05,0,0,1-5.13-31.48,107.73,107.73,0,0,1,4.44-32A69.62,69.62,0,0,1,101.25,86.8a54.48,54.48,0,0,1,20.38-15.25q12.06-5.26,27.59-5.27a65,65,0,0,1,15.4,1.66,83.3,83.3,0,0,1,13.72,4.72v-66L219.66,0Zm-93.45-69.33q0,19.14,8.59,30.78t25.51,11.65q5.55,0,10.26-.42t7.77-1V107a36.3,36.3,0,0,0-10.12-4.16,48.76,48.76,0,0,0-12.62-1.66Q126.2,101.22,126.21,141.15Z"/><path class="cls-2" d="M251.54,143.37q0-19.41,6-34a72.55,72.55,0,0,1,15.67-24.26,64.94,64.94,0,0,1,22.32-14.7,69.86,69.86,0,0,1,25.93-5q31.05,0,49.08,19t18,55.88c0,2.4-.1,5-.28,7.9s-.37,5.41-.55,7.63H294a27.42,27.42,0,0,0,11.92,20.24q10.53,7.49,28.29,7.49a119.22,119.22,0,0,0,22.32-2.08,84.32,84.32,0,0,0,17.89-5.13l5.54,33.55a57.33,57.33,0,0,1-8.87,3.33,116.16,116.16,0,0,1-12.34,2.91q-6.81,1.26-14.56,2.08a144.43,144.43,0,0,1-15.53.84q-19.69,0-34.25-5.83a66.72,66.72,0,0,1-24.13-15.94,63.21,63.21,0,0,1-14.13-24A94.75,94.75,0,0,1,251.54,143.37Zm97.06-15.81a42.77,42.77,0,0,0-1.79-10.26,25.85,25.85,0,0,0-4.72-8.87,25.26,25.26,0,0,0-8-6.38A26.27,26.27,0,0,0,322,99.55a27.74,27.74,0,0,0-11.93,2.36,24.73,24.73,0,0,0-8.32,6.24,27.86,27.86,0,0,0-5.13,9,58.29,58.29,0,0,0-2.63,10.4Z"/><path class="cls-2" d="M478.67,218q-18-.28-29.26-3.88T431.66,204a33.39,33.39,0,0,1-8.87-15.81,84.82,84.82,0,0,1-2.36-20.93V6.66L461.75,0V158.9a54.74,54.74,0,0,0,.83,10,17.29,17.29,0,0,0,3.19,7.49,16.76,16.76,0,0,0,6.8,5,37,37,0,0,0,11.92,2.5Z"/><path class="cls-2" d="M553.26,27.18q0,11.37-7.35,17.88a26.29,26.29,0,0,1-34.66,0q-7.35-6.51-7.35-17.88t7.35-17.89a26.29,26.29,0,0,1,34.66,0Q553.26,15.82,553.26,27.18Zm-3.89,188H508.06V69.33h41.31Z"/><path class="cls-2" d="M723.8,142.26a92.13,92.13,0,0,1-5.13,31.61A66.57,66.57,0,0,1,703.83,198,65.1,65.1,0,0,1,680,213.39q-14.15,5.42-32.17,5.41-7.49,0-15.67-.69c-5.46-.47-10.81-1.07-16.09-1.81s-10.31-1.61-15.11-2.63-9.06-2.08-12.76-3.19V6.66L629.52,0V72.66a76.53,76.53,0,0,1,14.42-4.72A74,74,0,0,1,660,66.28q15.53,0,27.45,5.41a53.74,53.74,0,0,1,20,15.38,69.37,69.37,0,0,1,12.2,24A109.52,109.52,0,0,1,723.8,142.26Zm-42.15-1.11q0-39.93-29.39-39.93a48.71,48.71,0,0,0-12.62,1.66A35.79,35.79,0,0,0,629.52,107v75.15c2,.38,4.61.7,7.76,1s6.56.42,10.26.42q16.92,0,25.51-11.65T681.65,141.15Z"/><path class="cls-2" d="M843.6,105.93q-5.55-1.38-13-2.91a81,81,0,0,0-16.08-1.52,74.89,74.89,0,0,0-9.29.69,53.25,53.25,0,0,0-8.18,1.53V215.19H755.69V77.09a251.86,251.86,0,0,1,26.21-7.35,151,151,0,0,1,33.69-3.46q3.31,0,8,.41t9.43,1.11c3.14.47,6.28,1,9.43,1.67a45.08,45.08,0,0,1,8,2.35Z"/><path class="cls-2" d="M863,143.37q0-19.41,6-34a72.7,72.7,0,0,1,15.67-24.26A64.94,64.94,0,0,1,907,70.44a69.83,69.83,0,0,1,25.93-5q31.07,0,49.09,19t18,55.88c0,2.4-.1,5-.28,7.9s-.37,5.41-.55,7.63H905.43a27.46,27.46,0,0,0,11.93,20.24q10.54,7.49,28.29,7.49A119.14,119.14,0,0,0,968,181.5a84.32,84.32,0,0,0,17.89-5.13l5.55,33.55a57.5,57.5,0,0,1-8.88,3.33,115.58,115.58,0,0,1-12.34,2.91q-6.8,1.26-14.56,2.08a144.43,144.43,0,0,1-15.53.84q-19.7,0-34.25-5.83a66.59,66.59,0,0,1-24.12-15.94,63.25,63.25,0,0,1-14.15-24A95,95,0,0,1,863,143.37Zm97.06-15.81a42.79,42.79,0,0,0-1.81-10.26,25.83,25.83,0,0,0-4.71-8.87,25.26,25.26,0,0,0-8-6.38,26.28,26.28,0,0,0-12.07-2.5,27.73,27.73,0,0,0-11.92,2.36,24.73,24.73,0,0,0-8.32,6.24,27.86,27.86,0,0,0-5.13,9,60.08,60.08,0,0,0-2.64,10.4Z"/></g></g></svg>